<!-- @formatter:off -->
<svg xmlns="http://www.w3.org/2000/svg" xmlns:xlink="http://www.w3.org/1999/xlink">
    <defs>
        <svg id="help" xmlns="http://www.w3.org/2000/svg" width="24" height="24" viewBox="0 0 24 24" fill="none">
            <path d="M11 18H13V16H11V18ZM12 2C6.48 2 2 6.48 2 12C2 17.52 6.48 22 12 22C17.52 22 22 17.52 22 12C22 6.48 17.52 2 12 2ZM12 20C7.59 20 4 16.41 4 12C4 7.59 7.59 4 12 4C16.41 4 20 7.59 20 12C20 16.41 16.41 20 12 20ZM12 6C9.79 6 8 7.79 8 10H10C10 8.9 10.9 8 12 8C13.1 8 14 8.9 14 10C14 12 11 11.75 11 15H13C13 12.75 16 12.5 16 10C16 7.79 14.21 6 12 6Z" 
            fill="currentColor" />
        </svg>

        <!-- LOGO  -->
        <svg id="logo" width="150" height="34" viewBox="0 0 150 34" fill="none" xmlns="http://www.w3.org/2000/svg">
            <path d="M8.15848 11.1096C8.47588 11.108 8.78664 11.2012 9.05136 11.3775C9.31609 11.5538 9.52285 11.8052 9.64547 12.0999C9.7681 12.3947 9.80106 12.7194 9.74016 13.033C9.67926 13.3466 9.52725 13.635 9.30341 13.8615C9.07956 14.0881 8.79395 14.2426 8.48277 14.3056C8.17159 14.3685 7.84884 14.3371 7.55544 14.2152C7.26203 14.0933 7.01118 13.8864 6.83466 13.6209C6.65815 13.3553 6.56391 13.043 6.5639 12.7234C6.5639 12.2969 6.73163 11.8877 7.03043 11.5853C7.32924 11.2829 7.7348 11.1119 8.15848 11.1096Z" fill="#6A3FB9"/>
            <path d="M25.4373 11.1096C25.7544 11.1096 26.0643 11.2043 26.3279 11.3816C26.5915 11.5589 26.797 11.811 26.9183 12.1058C27.0396 12.4007 27.0714 12.7252 27.0095 13.0382C26.9477 13.3513 26.795 13.6388 26.5708 13.8645C26.3466 14.0902 26.061 14.2439 25.75 14.3062C25.4391 14.3685 25.1168 14.3365 24.8239 14.2144C24.5309 14.0922 24.2806 13.8854 24.1044 13.62C23.9283 13.3546 23.8343 13.0426 23.8343 12.7234C23.8343 12.2954 24.0032 11.8849 24.3038 11.5823C24.6044 11.2796 25.0122 11.1096 25.4373 11.1096Z" fill="#6A3FB9"/>
            <path d="M16.8232 2.27164e-05C17.1386 2.27164e-05 17.4469 0.0941757 17.7091 0.270568C17.9713 0.44696 18.1757 0.697673 18.2964 0.991002C18.4171 1.28433 18.4487 1.60709 18.3871 1.91849C18.3256 2.22989 18.1737 2.51592 17.9507 2.74043C17.7277 2.96493 17.4436 3.11783 17.1343 3.17977C16.825 3.24171 16.5044 3.20991 16.213 3.08841C15.9216 2.96691 15.6726 2.76115 15.4974 2.49716C15.3222 2.23318 15.2286 1.92282 15.2286 1.60532C15.2275 1.39419 15.268 1.18494 15.3477 0.989667C15.4275 0.794396 15.5449 0.616984 15.6932 0.467693C15.8415 0.318403 16.0177 0.200193 16.2117 0.119918C16.4056 0.0396431 16.6135 -0.00110331 16.8232 2.27164e-05Z" fill="#6A3FB9"/>
            <path d="M14.2837 22.7628C12.2335 20.2148 11.0777 15.7981 11.0777 12.7658C11.0777 8.31518 13.2038 4.22974 16.7895 4.22974C20.3752 4.22974 22.4 8.31518 22.4 12.7658C22.4 15.7981 21.4045 20.2657 19.3543 22.7968C20.8691 23.6621 22.5912 24.0911 24.3321 24.0369C23.8617 22.0559 24.0211 19.9763 24.7877 18.0913C26.0701 15.246 28.6771 13.6662 31.1744 14.8638C33.6717 16.0614 34.2286 19.17 32.9461 22.0239C32.015 23.8335 30.5381 25.2995 28.7277 26.2113C29.4096 26.9737 30.2104 27.6192 31.0985 28.1223L28.9386 30.2882C27.6145 29.4383 26.4682 28.3361 25.5639 27.0436C23.5883 27.1898 21.6036 26.9386 19.7255 26.3047C18.7028 25.9264 17.7217 25.4425 16.7979 24.8608C15.7999 25.4893 14.7361 26.0049 13.6256 26.3981C11.7606 26.9523 9.80864 27.1483 7.87164 26.9757C6.95695 28.2756 5.81308 29.3955 4.49687 30.2797L2.24421 28.0034C3.11961 27.463 3.92941 26.8217 4.65717 26.0923C2.91168 25.219 1.50252 23.7884 0.649635 22.0239C-0.641214 19.17 -0.12657 16.0784 2.42138 14.8638C4.96933 13.6492 7.48354 15.246 8.80813 18.0913C9.5483 19.9847 9.68106 22.0638 9.18779 24.0369C10.9626 24.1191 12.7224 23.6762 14.2499 22.7628H14.2837ZM16.5701 7.6187C15.3046 7.80556 14.3849 9.99692 14.3849 12.7828C14.3849 15.1526 15.0936 19.1445 16.7557 21.0811C18.4431 19.1361 19.1687 15.1356 19.1687 12.7658C19.1687 9.84403 18.1647 7.6187 16.7979 7.6187H16.5701ZM30.2632 20.5885C30.8707 19.255 30.8201 18.0404 29.9089 17.5732C28.9977 17.1061 28.0359 17.896 27.4368 19.272C26.7619 20.7668 26.4582 22.542 26.9897 23.6547C27.7101 23.3998 28.3717 23.0004 28.9344 22.4807C29.4971 21.9609 29.9491 21.3317 30.2632 20.6309V20.5885ZM6.11676 19.272C5.5093 17.9385 4.55593 17.174 3.64474 17.5732C2.73356 17.9724 2.68293 19.272 3.28195 20.5885C3.56453 21.2647 3.98675 21.8726 4.52059 22.372C5.05444 22.8714 5.68769 23.2507 6.3783 23.4848C6.627 22.7968 6.73214 22.0646 6.68714 21.334C6.64214 20.6033 6.44797 19.8897 6.11676 19.238" fill="#6A3FB9"/>
            <path d="M16.7304 30.8489C13.6343 30.8502 10.6412 31.9681 8.29347 34L6.16736 31.8511C9.08693 29.2415 12.8557 27.8003 16.7599 27.8003C20.6642 27.8003 24.4329 29.2415 27.3525 31.8511L25.2179 34C22.8702 31.9681 19.877 30.8502 16.781 30.8489" fill="#6A3FB9"/>
            <path d="M48.5629 14.711C48.5629 15.2944 48.7931 15.8539 49.2029 16.2665C49.6127 16.679 50.1685 16.9108 50.7481 16.9108C51.3276 16.9108 51.8834 16.679 52.2932 16.2665C52.703 15.8539 52.9332 15.2944 52.9332 14.711C52.9332 13.7294 52.7412 12.7575 52.3681 11.8506C51.9949 10.9438 51.4481 10.1198 50.7586 9.42577C50.0692 8.7317 49.2507 8.18114 48.35 7.80551C47.4492 7.42989 46.4837 7.23657 45.5087 7.23657C44.5337 7.23657 43.5683 7.42989 42.6675 7.80551C41.7667 8.18114 40.9483 8.7317 40.2588 9.42577C39.5694 10.1198 39.0225 10.9438 38.6494 11.8506C38.2763 12.7575 38.0843 13.7294 38.0843 14.711V25.26C38.0843 27.2424 38.8665 29.1435 40.2588 30.5452C41.6512 31.947 43.5396 32.7344 45.5087 32.7344C47.4778 32.7344 49.3663 31.947 50.7586 30.5452C52.151 29.1435 52.9332 27.2424 52.9332 25.26C52.9332 24.6766 52.703 24.1171 52.2932 23.7045C51.8834 23.292 51.3276 23.0602 50.7481 23.0602C50.1685 23.0602 49.6127 23.292 49.2029 23.7045C48.7931 24.1171 48.5629 24.6766 48.5629 25.26C48.5217 26.0487 48.1816 26.7913 47.6125 27.3349C47.0435 27.8784 46.2889 28.1815 45.5045 28.1815C44.7201 28.1815 43.9656 27.8784 43.3965 27.3349C42.8275 26.7913 42.4873 26.0487 42.4461 25.26V14.711C42.4243 14.293 42.4873 13.875 42.6311 13.4823C42.775 13.0897 42.9967 12.7306 43.2828 12.427C43.569 12.1234 43.9135 11.8816 44.2955 11.7164C44.6774 11.5512 45.0888 11.466 45.5045 11.466C45.9202 11.466 46.3316 11.5512 46.7136 11.7164C47.0955 11.8816 47.44 12.1234 47.7262 12.427C48.0123 12.7306 48.2341 13.0897 48.3779 13.4823C48.5218 13.875 48.5847 14.293 48.5629 14.711Z" fill="#6A3FB9"/>
            <path d="M71.4691 14.711C71.4691 12.7286 70.6869 10.8275 69.2946 9.42577C67.9022 8.02405 66.0138 7.23657 64.0447 7.23657C62.0756 7.23657 60.1871 8.02405 58.7948 9.42577C57.4024 10.8275 56.6202 12.7286 56.6202 14.711V25.26C56.6202 27.2424 57.4024 29.1435 58.7948 30.5452C60.1871 31.947 62.0756 32.7344 64.0447 32.7344C66.0138 32.7344 67.9022 31.947 69.2946 30.5452C70.6869 29.1435 71.4691 27.2424 71.4691 25.26V14.711ZM67.1073 25.26C67.0661 26.0487 66.7259 26.7913 66.1569 27.3349C65.5878 27.8784 64.8333 28.1815 64.0489 28.1815C63.2644 28.1815 62.5099 27.8784 61.9409 27.3349C61.3718 26.7913 61.0317 26.0487 60.9905 25.26V14.711C60.9687 14.293 61.0316 13.875 61.1755 13.4823C61.3193 13.0897 61.5411 12.7306 61.8272 12.427C62.1134 12.1234 62.4579 11.8816 62.8398 11.7164C63.2218 11.5512 63.6332 11.466 64.0489 11.466C64.4646 11.466 64.8759 11.5512 65.2579 11.7164C65.6399 11.8816 65.9844 12.1234 66.2705 12.427C66.5567 12.7306 66.7784 13.0897 66.9223 13.4823C67.0661 13.875 67.1291 14.293 67.1073 14.711V25.26Z" fill="#6A3FB9"/>
            <path d="M79.5264 14.711C79.5046 14.2931 79.5675 13.875 79.7114 13.4824C79.8552 13.0897 80.077 12.7306 80.3631 12.427C80.6492 12.1234 80.9938 11.8817 81.3757 11.7165C81.7577 11.5512 82.1691 11.466 82.5848 11.466C83.0005 11.466 83.4118 11.5512 83.7938 11.7165C84.1758 11.8817 84.5203 12.1234 84.8064 12.427C85.0926 12.7306 85.3143 13.0897 85.4582 13.4824C85.602 13.875 85.665 14.2931 85.6432 14.711V16.0275C85.6443 16.4323 85.5658 16.8333 85.4122 17.2074C85.2585 17.5815 85.0329 17.9213 84.7481 18.2072C84.4634 18.493 84.1253 18.7193 83.7532 18.8729C83.3812 19.0265 82.9827 19.1044 82.5806 19.1022H79.5264V14.711ZM75.1561 30.5346C75.1561 31.1181 75.3863 31.6776 75.7961 32.0902C76.2059 32.5027 76.7617 32.7345 77.3412 32.7345C77.9208 32.7345 78.4766 32.5027 78.8864 32.0902C79.2962 31.6776 79.5264 31.1181 79.5264 30.5346V23.5019H81.855L85.7866 31.367C85.9557 31.7717 86.2396 32.1173 86.6027 32.3605C86.9659 32.6037 87.3922 32.7338 87.8283 32.7345C88.1156 32.7356 88.4002 32.6795 88.6659 32.5693C88.9315 32.4592 89.1728 32.2972 89.3759 32.0927C89.5791 31.8882 89.74 31.6452 89.8494 31.3778C89.9588 31.1104 90.0146 30.8238 90.0135 30.5346C90.0074 30.1422 89.906 29.7573 89.7182 29.4135L86.2759 22.5591C87.4135 21.9049 88.3586 20.959 89.0151 19.8177C89.6716 18.6764 90.0161 17.3804 90.0135 16.0615V14.745C90.0471 13.7417 89.8798 12.7418 89.5216 11.8049C89.1634 10.868 88.6216 10.0133 87.9284 9.29158C87.2353 8.56987 86.405 7.99595 85.487 7.60398C84.5689 7.21201 83.582 7.01001 82.5848 7.01001C81.5876 7.01001 80.6006 7.21201 79.6826 7.60398C78.7645 7.99595 77.9342 8.56987 77.2411 9.29158C76.548 10.0133 76.0062 10.868 75.648 11.8049C75.2897 12.7418 75.1225 13.7417 75.1561 14.745V30.5346Z" fill="#6A3FB9"/>
            <path d="M108.549 14.711C108.549 12.7286 107.767 10.8275 106.375 9.42577C104.982 8.02405 103.094 7.23657 101.125 7.23657C99.1558 7.23657 97.2673 8.02405 95.875 9.42577C94.4826 10.8275 93.7004 12.7286 93.7004 14.711V25.26C93.7004 27.2424 94.4826 29.1435 95.875 30.5452C97.2673 31.947 99.1558 32.7344 101.125 32.7344C103.094 32.7344 104.982 31.947 106.375 30.5452C107.767 29.1435 108.549 27.2424 108.549 25.26V14.711ZM104.145 25.26C104.104 26.0487 103.764 26.7913 103.195 27.3349C102.626 27.8784 101.871 28.1815 101.087 28.1815C100.303 28.1815 99.548 27.8784 98.9789 27.3349C98.4099 26.7913 98.0697 26.0487 98.0286 25.26V14.711C98.0067 14.293 98.0697 13.875 98.2135 13.4823C98.3574 13.0897 98.5791 12.7306 98.8653 12.427C99.1514 12.1234 99.4959 11.8816 99.8779 11.7164C100.26 11.5512 100.671 11.466 101.087 11.466C101.503 11.466 101.914 11.5512 102.296 11.7164C102.678 11.8816 103.022 12.1234 103.309 12.427C103.595 12.7306 103.817 13.0897 103.96 13.4823C104.104 13.875 104.167 14.293 104.145 14.711V25.26Z" fill="#6A3FB9"/>
            <path d="M122.707 30.5346C122.707 31.118 122.937 31.6776 123.347 32.0901C123.756 32.5027 124.312 32.7344 124.892 32.7344C125.471 32.7344 126.027 32.5027 126.437 32.0901C126.847 31.6776 127.077 31.118 127.077 30.5346V14.711C127.077 12.7286 126.295 10.8275 124.902 9.42577C123.51 8.02405 121.622 7.23657 119.652 7.23657C117.683 7.23657 115.795 8.02405 114.403 9.42577C113.01 10.8275 112.228 12.7286 112.228 14.711V30.5346C112.228 31.118 112.458 31.6776 112.868 32.0901C113.278 32.5027 113.834 32.7344 114.413 32.7344C114.993 32.7344 115.548 32.5027 115.958 32.0901C116.368 31.6776 116.598 31.118 116.598 30.5346V14.711C116.598 13.8955 116.92 13.1134 117.493 12.5368C118.066 11.9602 118.842 11.6363 119.652 11.6363C120.462 11.6363 121.239 11.9602 121.812 12.5368C122.385 13.1134 122.707 13.8955 122.707 14.711V30.5346Z" fill="#6A3FB9"/>
            <path d="M141.268 24.8184V30.5346C141.249 30.8344 141.292 31.1349 141.393 31.4175C141.494 31.7 141.652 31.9588 141.856 32.1777C142.061 32.3966 142.307 32.571 142.581 32.6903C142.855 32.8096 143.15 32.8711 143.449 32.8711C143.747 32.8711 144.042 32.8096 144.316 32.6903C144.59 32.571 144.837 32.3966 145.041 32.1777C145.245 31.9588 145.403 31.7 145.504 31.4175C145.606 31.1349 145.648 30.8344 145.63 30.5346V14.711C145.63 12.7286 144.847 10.8275 143.455 9.42577C142.063 8.02405 140.174 7.23657 138.205 7.23657C136.236 7.23657 134.348 8.02405 132.955 9.42577C131.563 10.8275 130.781 12.7286 130.781 14.711V30.5346C130.781 31.118 131.011 31.6776 131.421 32.0901C131.831 32.5027 132.386 32.7344 132.966 32.7344C133.545 32.7344 134.101 32.5027 134.511 32.0901C134.921 31.6776 135.151 31.118 135.151 30.5346V24.8184H141.268ZM135.151 20.4272V14.711C135.129 14.293 135.192 13.875 135.336 13.4823C135.48 13.0897 135.702 12.7306 135.988 12.427C136.274 12.1234 136.618 11.8816 137 11.7164C137.382 11.5512 137.794 11.466 138.209 11.466C138.625 11.466 139.036 11.5512 139.418 11.7164C139.8 11.8816 140.145 12.1234 140.431 12.427C140.717 12.7306 140.939 13.0897 141.083 13.4823C141.227 13.875 141.29 14.293 141.268 14.711V20.4272H135.151Z" fill="#6A3FB9"/>
            <path d="M148.38 31.1208H148.65C148.741 31.1308 148.833 31.1098 148.912 31.0613C148.937 31.0449 148.957 31.0221 148.97 30.9952C148.983 30.9683 148.989 30.9384 148.988 30.9084C148.996 30.8722 148.996 30.8343 148.988 30.798C148.963 30.7635 148.927 30.7393 148.886 30.7301C148.814 30.7172 148.74 30.7172 148.667 30.7301H148.414L148.38 31.1208ZM148.152 31.9107V30.5177H148.633C148.748 30.5 148.865 30.5 148.979 30.5177C149.051 30.5427 149.113 30.5903 149.156 30.6536C149.199 30.7132 149.222 30.7843 149.224 30.8575C149.222 30.956 149.182 31.0501 149.114 31.1208C149.039 31.1995 148.936 31.2453 148.827 31.2482C148.87 31.2676 148.91 31.2934 148.945 31.3246C149.018 31.411 149.086 31.5017 149.148 31.5964L149.317 31.8767H149.047L148.92 31.6559C148.867 31.5337 148.789 31.4238 148.692 31.3331C148.638 31.2963 148.572 31.2785 148.507 31.2822H148.38V31.8767L148.152 31.9107ZM148.718 30.11C148.534 30.113 148.354 30.1626 148.194 30.2544C148.021 30.3413 147.879 30.481 147.79 30.6536C147.695 30.816 147.646 31.0007 147.646 31.1887C147.646 31.3768 147.695 31.5614 147.79 31.7238C147.881 31.8947 148.018 32.036 148.186 32.1315C148.347 32.2263 148.531 32.2762 148.718 32.2762C148.904 32.2762 149.088 32.2263 149.249 32.1315C149.412 32.0341 149.547 31.8962 149.641 31.7311C149.736 31.566 149.787 31.3793 149.789 31.1887C149.788 31.0009 149.738 30.8167 149.646 30.6536C149.559 30.4816 149.42 30.3418 149.249 30.2544C149.087 30.1623 148.904 30.1126 148.718 30.11ZM148.718 29.8977C148.943 29.8989 149.164 29.959 149.359 30.0722C149.555 30.1853 149.717 30.3476 149.831 30.5432C149.944 30.7393 150.002 30.9622 150 31.1887C150.003 31.4153 149.945 31.6385 149.831 31.8343C149.724 32.0362 149.559 32.2016 149.359 32.3099C149.165 32.4266 148.943 32.4883 148.718 32.4883C148.492 32.4874 148.271 32.4258 148.076 32.3099C147.878 32.1989 147.714 32.0341 147.604 31.8343C147.494 31.637 147.436 31.4148 147.435 31.1887C147.437 30.9628 147.495 30.7409 147.604 30.5432C147.717 30.3427 147.884 30.178 148.085 30.0676C148.277 29.9564 148.496 29.8979 148.718 29.8977Z" fill="#6A3FB9"/>
        </svg>

        <!-- LOGO SMALL  -->
        <svg id="logo-small" width="159" height="159" viewBox="0 0 159 159" fill="none" xmlns="http://www.w3.org/2000/svg">
            <path d="M38.3993 51.954C39.8932 51.9462 41.3559 52.3821 42.6018 53.2066C43.8478 54.031 44.8209 55.2069 45.3981 56.5852C45.9752 57.9635 46.1304 59.4821 45.8437 60.9487C45.5571 62.4152 44.8417 63.7637 43.7881 64.8231C42.7345 65.8825 41.3903 66.6052 39.9256 66.8997C38.461 67.1941 36.9419 67.0469 35.561 66.4769C34.18 65.9069 32.9994 64.9396 32.1685 63.6977C31.3377 62.4558 30.8942 60.9952 30.8942 59.5009C30.8941 57.5062 31.6836 55.5926 33.09 54.1784C34.4963 52.7643 36.4052 51.9645 38.3993 51.954Z" fill="white"/>
            <path d="M119.725 51.9541C121.217 51.9541 122.676 52.3967 123.917 53.2259C125.157 54.0552 126.124 55.2338 126.695 56.6128C127.267 57.9918 127.416 59.5092 127.125 60.9732C126.834 62.4371 126.115 63.7819 125.06 64.8373C124.005 65.8927 122.66 66.6115 121.197 66.9027C119.733 67.1939 118.216 67.0444 116.838 66.4732C115.459 65.902 114.281 64.9348 113.452 63.6937C112.623 62.4526 112.18 60.9935 112.18 59.5009C112.18 57.4993 112.975 55.5797 114.39 54.1644C115.805 52.7491 117.724 51.9541 119.725 51.9541Z" fill="white"/>
            <path d="M79.1813 -5.79166e-07C80.6657 -5.79166e-07 82.1167 0.440303 83.3509 1.2652C84.5852 2.09009 85.5471 3.26254 86.1152 4.63429C86.6832 6.00603 86.8318 7.51542 86.5422 8.97165C86.2526 10.4279 85.5378 11.7655 84.4882 12.8154C83.4386 13.8653 82.1013 14.5803 80.6454 14.87C79.1896 15.1597 77.6806 15.011 76.3092 14.4428C74.9378 13.8746 73.7657 12.9124 72.941 11.6778C72.1163 10.4433 71.6761 8.99189 71.6761 7.50712C71.6709 6.5198 71.8614 5.54123 72.2367 4.62804C72.612 3.71486 73.1646 2.8852 73.8626 2.18705C74.5606 1.4889 75.39 0.936089 76.303 0.560686C77.2159 0.185283 78.1942 -0.00526641 79.1813 -5.79166e-07Z" fill="white"/>
            <path d="M67.2287 106.45C57.5792 94.5341 52.139 73.8796 52.139 59.6995C52.139 38.8861 62.1458 19.7807 79.0225 19.7807C95.8991 19.7807 105.429 38.8861 105.429 59.6995C105.429 73.8796 100.744 94.7724 91.0942 106.609C98.224 110.656 106.329 112.662 114.523 112.408C112.309 103.144 113.059 93.4189 116.667 84.6041C122.703 71.2978 134.974 63.9098 146.728 69.5104C158.482 75.1109 161.102 89.6485 155.067 102.994C150.684 111.457 143.733 118.313 135.212 122.577C138.421 126.142 142.19 129.161 146.37 131.514L136.204 141.642C129.972 137.668 124.577 132.513 120.321 126.469C111.022 127.153 101.681 125.978 92.8415 123.014C88.0277 121.244 83.41 118.982 79.0622 116.261C74.3652 119.2 69.3578 121.611 64.1313 123.45C55.3533 126.042 46.166 126.958 37.0492 126.151C32.7441 132.23 27.3603 137.467 21.1653 141.603L10.5628 130.958C14.683 128.43 18.4945 125.431 21.9198 122.021C13.7044 117.936 7.07191 111.246 3.05767 102.994C-3.01792 89.6485 -0.595664 75.1904 11.3967 69.5104C23.389 63.8304 35.2226 71.2978 41.457 84.6041C44.9407 93.4581 45.5656 103.181 43.2439 112.408C51.5972 112.793 59.8801 110.721 67.0698 106.45H67.2287ZM77.99 35.6291C72.0335 36.5029 67.7052 46.7507 67.7052 59.779C67.7052 70.8609 71.0408 89.5293 78.8636 98.5856C86.8056 89.4896 90.2206 70.7814 90.2206 59.6995C90.2206 46.0357 85.4952 35.6291 79.0622 35.6291H77.99ZM142.439 96.2818C145.298 90.0457 145.06 84.3658 140.771 82.1811C136.483 79.9965 131.956 83.6905 129.136 90.1252C125.959 97.1159 124.53 105.417 127.032 110.621C130.422 109.429 133.536 107.561 136.185 105.131C138.833 102.7 140.961 99.7573 142.439 96.4804V96.2818ZM28.7896 90.1252C25.9305 83.8891 21.4433 80.3143 17.1547 82.1811C12.866 84.048 12.6277 90.1251 15.4471 96.2818C16.7771 99.4441 18.7644 102.287 21.277 104.622C23.7896 106.958 26.7701 108.732 30.0206 109.826C31.1911 106.609 31.686 103.185 31.4742 99.768C31.2624 96.3509 30.3485 93.0142 28.7896 89.9663" fill="white"/>
            <path d="M78.7445 144.264C64.1724 144.27 50.0848 149.498 39.0347 159L29.0278 148.951C42.7693 136.747 60.5075 130.007 78.8835 130.007C97.2595 130.007 114.998 136.747 128.739 148.951L118.693 159C107.642 149.498 93.5548 144.27 78.9827 144.264" fill="white"/>
        </svg>


    
        <!-- ARROW LEFT  -->
        <svg id="arrow-left" xmlns="http://www.w3.org/2000/svg" width="8" height="12" viewBox="0 0 8 12" fill="none">
            <path fill-rule="evenodd" clip-rule="evenodd" d="M7.41 1.41L6 0L0 6L6 12L7.41 10.59L2.83 6L7.41 1.41Z" fill="#3533DD"/>
         </svg>

         <!-- SPINNER  -->
         <svg id="spinner" xmlns="http://www.w3.org/2000/svg" width="44" height="44" viewBox="0 0 44 44" fill="none">
            <path fill-rule="evenodd" clip-rule="evenodd" d="M22 44C34.1503 44 44 34.1503 44 22C44 9.84974 34.1503 0 22 0V4C31.9411 4 40 12.0589 40 22C40 31.9411 31.9411 40 22 40C12.0589 40 4 31.9411 4 22H0C0 34.1503 9.84974 44 22 44Z" fill="#008A5E"/>
         </svg>

        <!-- ALERT ICON -->
         <svg id="alert-icon" xmlns="http://www.w3.org/2000/svg" width="20" height="20" viewBox="0 0 20 20" fill="none">
            <path d="M9 5H11V7H9V5ZM9 9H11V15H9V9ZM10 0C4.48 0 0 4.48 0 10C0 15.52 4.48 20 10 20C15.52 20 20 15.52 20 10C20 4.48 15.52 0 10 0ZM10 18C5.59 18 2 14.41 2 10C2 5.59 5.59 2 10 2C14.41 2 18 5.59 18 10C18 14.41 14.41 18 10 18Z" fill="#008A5E"/>
        </svg>

        <!-- EYE ICON  -->
        <svg id="eye" xmlns="http://www.w3.org/2000/svg" width="24" height="24" viewBox="0 0 24 24" fill="none">
            <path fill-rule="evenodd" clip-rule="evenodd" d="M12 5C7 5 2.73 8.11 1 12.5C2.73 16.89 7 20 12 20C17 20 21.27 16.89 23 12.5C21.27 8.11 17 5 12 5ZM12 17.5C9.24 17.5 7 15.26 7 12.5C7 9.74 9.24 7.5 12 7.5C14.76 7.5 17 9.74 17 12.5C17 15.26 14.76 17.5 12 17.5ZM12 9.5C10.34 9.5 9 10.84 9 12.5C9 14.16 10.34 15.5 12 15.5C13.66 15.5 15 14.16 15 12.5C15 10.84 13.66 9.5 12 9.5Z" fill="currentColor" />
        </svg>

        <svg id="eye-off-solid" xmlns="http://www.w3.org/2000/svg" width="24" height="24"  viewBox="0 0 24 24" fill="currentColor">
            <path fill-rule="evenodd" d="M3.707 2.293a1 1 0 00-1.414 1.414l14 14a1 1 0 001.414-1.414l-1.473-1.473A10.014 10.014 0 0019.542 10C18.268 5.943 14.478 3 10 3a9.958 9.958 0 00-4.512 1.074l-1.78-1.781zm4.261 4.26l1.514 1.515a2.003 2.003 0 012.45 2.45l1.514 1.514a4 4 0 00-5.478-5.478z" clip-rule="evenodd" fill="currentColor"/>
            <path d="M12.454 16.697L9.75 13.992a4 4 0 01-3.742-3.741L2.335 6.578A9.98 9.98 0 00.458 10c1.274 4.057 5.065 7 9.542 7 .847 0 1.669-.105 2.454-.303z"/>
        </svg>
        <svg id="eye-solid" xmlns="http://www.w3.org/2000/svg" width="24" height="24"  viewBox="0 0 24 24" fill="currentColor">
            <path d="M10 12a2 2 0 100-4 2 2 0 000 4z"/>
            <path fill-rule="evenodd" d="M.458 10C1.732 5.943 5.522 3 10 3s8.268 2.943 9.542 7c-1.274 4.057-5.064 7-9.542 7S1.732 14.057.458 10zM14 10a4 4 0 11-8 0 4 4 0 018 0z" clip-rule="evenodd"/>
        </svg>

        <!-- CHECK ICON  -->
        <svg id="check" class="w-14 h-14" xmlns="http://www.w3.org/2000/svg" width="56" height="56" viewBox="0 0 56 56" fill="none">
          <path fill-rule="evenodd" clip-rule="evenodd" d="M22.9993 35L15.9993 28L13.666 30.3334L22.9993 39.6667L42.9993 19.6667L40.666 17.3334L22.9993 35Z" fill="#008A5E"/>
          <path opacity="0.4" d="M53 28C53 41.8071 41.8071 53 28 53C19.7215 53 12.3825 48.9792 7.82786 42.7709C4.79202 38.6328 3 33.5301 3 28C3 14.1929 14.1929 3 28 3C41.8071 3 53 14.1929 53 28Z" stroke="#008A5E" stroke-width="6"/>
        </svg>

        <!-- GIFT ICON -->
        <svg id="gift" width="32" height="32" fill="none" viewBox="0 0 32 32" xmlns="http://www.w3.org/2000/svg">
            <path fill="white" d="M26.666 7.99996H23.7593C23.906 7.58663 23.9993 7.13329 23.9993 6.66663C23.9993 4.45329 22.2127 2.66663 19.9993 2.66663C18.5993 2.66663 17.386 3.38663 16.666 4.46663L15.9993 5.35996L15.3327 4.45329C14.6127 3.38663 13.3993 2.66663 11.9993 2.66663C9.78602 2.66663 7.99935 4.45329 7.99935 6.66663C7.99935 7.13329 8.09268 7.58663 8.23935 7.99996H5.33268C3.85268 7.99996 2.67935 9.18663 2.67935 10.6666L2.66602 25.3333C2.66602 26.8133 3.85268 28 5.33268 28H26.666C28.146 28 29.3327 26.8133 29.3327 25.3333V10.6666C29.3327 9.18663 28.146 7.99996 26.666 7.99996ZM19.9993 5.33329C20.7327 5.33329 21.3327 5.93329 21.3327 6.66663C21.3327 7.39996 20.7327 7.99996 19.9993 7.99996C19.266 7.99996 18.666 7.39996 18.666 6.66663C18.666 5.93329 19.266 5.33329 19.9993 5.33329ZM11.9993 5.33329C12.7327 5.33329 13.3327 5.93329 13.3327 6.66663C13.3327 7.39996 12.7327 7.99996 11.9993 7.99996C11.266 7.99996 10.666 7.39996 10.666 6.66663C10.666 5.93329 11.266 5.33329 11.9993 5.33329ZM26.666 25.3333H5.33268V22.6666H26.666V25.3333ZM26.666 18.6666H5.33268V10.6666H12.106L9.33268 14.44L11.4927 16L15.9993 9.86663L20.506 16L22.666 14.44L19.8927 10.6666H26.666V18.6666Z" />
        </svg>

        <!-- CLOSE ICON  -->
        <svg id="close" width="24" height="24" fill="none" viewBox="0 0 24 24" xmlns="http://www.w3.org/2000/svg">
            <path fill="black" fill-rule="evenodd" clip-rule="evenodd" d="M19 6.41L17.59 5L12 10.59L6.41 5L5 6.41L10.59 12L5 17.59L6.41 19L12 13.41L17.59 19L19 17.59L13.41 12L19 6.41Z" />
        </svg>

        <!-- WHATSAPP ICON  -->
        <svg id="whatsapp" width="20" height="20" fill="none" viewBox="0 0 20 20" xmlns="http://www.w3.org/2000/svg">
            <path d="M18.1607 4.84C15.2807 0.4 9.40071 -0.92 4.84071 1.84C0.400712 4.6 -1.03929 10.6 1.84071 15.04L2.08071 15.4L1.12071 19L4.72071 18.04L5.08071 18.28C6.64071 19.12 8.32071 19.6 10.0007 19.6C11.8007 19.6 13.6007 19.12 15.1607 18.16C19.6007 15.28 20.9207 9.4 18.1607 4.84ZM15.6407 14.08C15.1607 14.8 14.5607 15.28 13.7207 15.4C13.2407 15.4 12.6407 15.64 10.2407 14.68C8.20071 13.72 6.52071 12.16 5.32071 10.36C4.60071 9.52 4.24071 8.44 4.12071 7.36C4.12071 6.4 4.48071 5.56 5.08071 4.96C5.32071 4.72 5.56071 4.6 5.80071 4.6H6.40071C6.64071 4.6 6.88071 4.6 7.00071 5.08C7.24071 5.68 7.84071 7.12 7.84071 7.24C7.96071 7.36 7.96071 7.6 7.84071 7.72C7.96071 7.96 7.84071 8.2 7.72071 8.32C7.60071 8.44 7.48071 8.68 7.36071 8.8C7.12071 8.92 7.00071 9.16 7.12071 9.4C7.60071 10.12 8.20071 10.84 8.80071 11.44C9.52071 12.04 10.2407 12.52 11.0807 12.88C11.3207 13 11.5607 13 11.6807 12.76C11.8007 12.52 12.4007 11.92 12.6407 11.68C12.8807 11.44 13.0007 11.44 13.2407 11.56L15.1607 12.52C15.4007 12.64 15.6407 12.76 15.7607 12.88C15.8807 13.24 15.8807 13.72 15.6407 14.08Z" fill="#008A5E" />
        </svg>

        <!-- MAIL ICON  -->
        <svg id="mail" xmlns="http://www.w3.org/2000/svg" width="21" height="17" viewBox="0 0 21 17" fill="none">
            <path d="M20.1004 4.84765V13.4C20.1004 14.1957 19.7843 14.9588 19.2217 15.5214C18.6591 16.084 17.896 16.4 17.1004 16.4H3.90039C3.10474 16.4 2.34168 16.084 1.77907 15.5214C1.21646 14.9588 0.900391 14.1957 0.900391 13.4V4.84765L10.1956 10.3172C10.2879 10.3717 10.3932 10.4004 10.5004 10.4004C10.6076 10.4004 10.7128 10.3717 10.8052 10.3172L20.1004 4.84765ZM17.1004 0.800049C17.8386 0.799933 18.5509 1.07198 19.101 1.56414C19.6512 2.0563 20.0006 2.73402 20.0824 3.46765L10.5004 9.10405L0.918391 3.46765C1.00018 2.73402 1.34958 2.0563 1.89974 1.56414C2.44991 1.07198 3.16221 0.799933 3.90039 0.800049H17.1004Z" fill="#008A5E" />
        </svg>

        <!-- PERSON ICON  -->
        <svg id="person" class="min-w-5 min-h-5 max-w-5 max-h-5" xmlns="http://www.w3.org/2000/svg" width="20" height="20" viewBox="0 0 20 20" fill="none">
            <path d="M16.8646 15.0102C16.8646 16.0489 16.0296 16.8839 14.9909 16.8839H4.99091C3.95221 16.8839 3.11719 16.0489 3.11719 15.0102C3.11719 12.2403 4.76688 9.87777 7.10904 8.77797C7.88297 9.42971 8.88093 9.83704 9.98073 9.83704C11.0805 9.83704 12.0785 9.42971 12.8524 8.77797C15.2353 9.8574 16.8646 12.2403 16.8646 15.0102ZM13.1172 5.53969C13.1172 3.86963 11.7119 2.50507 10.0011 2.50507C8.26994 2.50507 6.88501 3.86963 6.88501 5.53969C6.88501 7.20975 8.2903 8.57431 10.0011 8.57431C11.7119 8.57431 13.1172 7.23011 13.1172 5.53969Z" fill="#432EFF" />
        </svg>

        <!-- GOOGLE ICON  -->
        <svg id="google" xmlns="http://www.w3.org/2000/svg" width="49" height="48" viewBox="0 0 49 48" fill="none">
            <path d="M44.111 20.083H42.5V20H24.5V28H35.803C34.154 32.657 29.723 36 24.5 36C17.873 36 12.5 30.627 12.5 24C12.5 17.373 17.873 12 24.5 12C27.559 12 30.342 13.154 32.461 15.039L38.118 9.382C34.546 6.053 29.768 4 24.5 4C13.455 4 4.5 12.955 4.5 24C4.5 35.045 13.455 44 24.5 44C35.545 44 44.5 35.045 44.5 24C44.5 22.659 44.362 21.35 44.111 20.083Z" fill="#FFC107" />
            <path d="M6.80664 14.691L13.3776 19.51C15.1556 15.108 19.4616 12 24.5006 12C27.5596 12 30.3426 13.154 32.4616 15.039L38.1186 9.382C34.5466 6.053 29.7686 4 24.5006 4C16.8186 4 10.1566 8.337 6.80664 14.691Z" fill="#FF3D00" />
            <path d="M24.5003 44C29.6663 44 34.3603 42.023 37.9093 38.808L31.7193 33.57C29.6439 35.1483 27.1078 36.002 24.5003 36C19.2983 36 14.8813 32.683 13.2173 28.054L6.69531 33.079C10.0053 39.556 16.7273 44 24.5003 44Z" fill="#4CAF50" />
            <path d="M44.111 20.083H42.5V20H24.5V28H35.803C35.0142 30.2164 33.5934 32.1532 31.716 33.571L31.719 33.569L37.909 38.807C37.471 39.205 44.5 34 44.5 24C44.5 22.659 44.362 21.35 44.111 20.083Z" fill="#1976D2" />
        </svg>

        <!-- FACEBOOK ICON  -->
        <svg id="facebook" xmlns="http://www.w3.org/2000/svg" width="40" height="40" viewBox="0 0 40 40" fill="none">
            <g clip-path="url(#clip0_31_4683)">
                <path d="M37.7923 40.0002C39.0114 40.0002 40 39.0117 40 37.7925V2.20766C40 0.988281 39.0114 0 37.7923 0H2.20766C0.988125 0 0 0.988281 0 2.20766V37.7925C0 39.0117 0.988125 40.0002 2.20766 40.0002H37.7923Z" fill="#395185" />
                <path d="M27.5991 40.0002V24.51H32.7986L33.577 18.4733H27.5991V14.6189C27.5991 12.8711 28.0845 11.68 30.5909 11.68L33.7877 11.6786V6.27941C33.2345 6.20582 31.337 6.04144 29.1295 6.04144C24.5205 6.04144 21.3652 8.85472 21.3652 14.0213V18.4733H16.1523V24.51H21.3652V40.0002H27.5991Z" fill="white" />
            </g>
            <defs>
                <clipPath id="clip0_31_4683">
                    <rect width="40" height="40" fill="white" />
                </clipPath>
            </defs>
        </svg>

        <!-- VERIFICACION EXITOSA  -->
        <svg id="verificacion-exitosa" class="mx-auto min-w-18 min-h-24 max-w-18 max-h-24" xmlns="http://www.w3.org/2000/svg" width="76" height="92" viewBox="0 0 76 92" fill="none">
            <path d="M67.168 4.3335H8.83463C7.72957 4.3335 6.66976 4.77248 5.88836 5.55388C5.10696 6.33529 4.66797 7.39509 4.66797 8.50016V83.5002C4.66797 84.6052 5.10696 85.665 5.88836 86.4465C6.66976 87.2279 7.72957 87.6668 8.83463 87.6668H67.168C68.273 87.6668 69.3328 87.2279 70.1142 86.4465C70.8956 85.665 71.3346 84.6052 71.3346 83.5002V8.50016C71.3346 7.39509 70.8956 6.33529 70.1142 5.55388C69.3328 4.77248 68.273 4.3335 67.168 4.3335V4.3335Z" stroke="#00DD96" stroke-width="8" stroke-linecap="round" stroke-linejoin="round"/>
            <path d="M23.418 58.5H52.5846" stroke="#00DD96" stroke-width="8" stroke-linecap="round" stroke-linejoin="round"/>
            <path d="M23.418 71H38.0013" stroke="#00DD96" stroke-width="8" stroke-linecap="round" stroke-linejoin="round"/>
            <path d="M50.5 23.0835L33.8333 39.7502L25.5 31.4168" stroke="#00DD96" stroke-width="8" stroke-linecap="round" stroke-linejoin="round"/>
         </svg>

        <!-- VERIFICACION ÉRRONEA  -->
        <svg id="verificacion-erronea" class="mx-auto min-w-18 min-h-24 max-w-18 max-h-24" xmlns="http://www.w3.org/2000/svg" width="76" height="92" viewBox="0 0 76 92" fill="none">
            <path d="M67.168 4.3335H8.83463C7.72957 4.3335 6.66976 4.77248 5.88836 5.55388C5.10696 6.33529 4.66797 7.39509 4.66797 8.50016V83.5002C4.66797 84.6052 5.10696 85.665 5.88836 86.4465C6.66976 87.2279 7.72957 87.6668 8.83463 87.6668H67.168C68.273 87.6668 69.3328 87.2279 70.1142 86.4465C70.8956 85.665 71.3346 84.6052 71.3346 83.5002V8.50016C71.3346 7.39509 70.8956 6.33529 70.1142 5.55388C69.3328 4.77248 68.273 4.3335 67.168 4.3335V4.3335Z" stroke="#00DD96" stroke-width="8" stroke-linecap="round" stroke-linejoin="round"/>
            <path d="M23.418 58.5H52.5846" stroke="#00DD96" stroke-width="8" stroke-linecap="round" stroke-linejoin="round"/>
            <path d="M23.418 71H38.0013" stroke="#00DD96" stroke-width="8" stroke-linecap="round" stroke-linejoin="round"/>
            <path d="M29.668 39.7502L46.3346 23.0835" stroke="#00DD96" stroke-width="8" stroke-linecap="round" stroke-linejoin="round"/>
            <path d="M46.3346 39.7502L29.668 23.0835" stroke="#00DD96" stroke-width="8" stroke-linecap="round" stroke-linejoin="round"/>
         </svg>


        <!-- SII LOGO  -->
        <svg id="sii-logo" class="min-w-22 min-h-8 max-w-22 max-h-8" xmlns="http://www.w3.org/2000/svg" width="87" height="32" viewBox="0 0 87 32" fill="none">
            <path d="M18.791 31.4197H26.0582V9.66573H18.791V31.4197V31.4197Z" fill="#0061A1"/>
            <path d="M18.8574 4.21749C18.8574 2.20777 20.485 0.580308 22.4915 0.580308C24.498 0.580308 26.1246 2.20777 26.1246 4.21749C26.1246 6.22406 24.498 7.85257 22.4915 7.85257C20.485 7.85257 18.8574 6.22406 18.8574 4.21749Z" fill="#E9500D"/>
            <path d="M29.6914 31.4197H36.9586V9.66573H29.6914V31.4197Z" fill="#0061A1"/>
            <path d="M29.6914 4.21749C29.6914 2.20777 31.319 0.580308 33.3245 0.580308C35.331 0.580308 36.9586 2.20777 36.9586 4.21749C36.9586 6.22406 35.331 7.85257 33.3245 7.85257C31.319 7.85257 29.6914 6.22406 29.6914 4.21749Z" fill="#E9500D"/>
            <path d="M7.96094 0.580643H15.2271V7.84976H7.96094V0.580643V0.580643Z" fill="#0061A1"/>
            <path d="M1.71155 7.85027H7.96031C7.96031 7.85027 7.79075 8.36867 7.79075 9.10072C7.79075 10.0108 8.09952 10.9984 9.01014 11.9179C11.4762 14.4072 12.5741 15.2021 14.297 17.3752C15.2516 18.5817 15.8398 20.3254 15.8398 22.3896C15.8398 25.3062 14.5095 27.671 12.9813 29.0502C11.4374 30.4462 9.26449 31.3542 7.27368 31.3542C5.65549 31.3542 3.81122 30.9981 2.68288 30.4169C1.26252 29.687 0.580078 29.2199 0.580078 29.2199V23.019C0.580078 23.019 1.23635 23.5835 2.44947 24.2694C3.32974 24.7669 4.25397 25.1575 5.60316 25.2476C6.76708 25.3261 7.9153 25.0989 8.65636 24.2736C9.28228 23.573 9.36392 22.7278 9.36392 22.0764C9.36392 21.3967 9.15249 20.8323 8.84267 20.2793C7.37625 17.6548 3.68771 15.8546 2.282 13.294C1.12855 11.1953 1.71155 7.85027 1.71155 7.85027Z" fill="#0061A1"/>
            <path d="M48.4307 8.30847V9.46465C47.6468 9.11277 47.0208 8.93473 46.5561 8.93473C46.2923 8.93473 46.0799 8.97977 45.9229 9.06879C45.7659 9.1578 45.6894 9.2751 45.6894 9.42172C45.6894 9.53587 45.7449 9.64269 45.858 9.74428C45.971 9.84586 46.2473 9.97782 46.6838 10.138C47.1192 10.2993 47.4709 10.4491 47.7326 10.5863C47.9953 10.7245 48.2214 10.9193 48.4119 11.1728C48.6045 11.4241 48.6977 11.7393 48.6977 12.1247C48.6977 12.6724 48.4904 13.1092 48.0738 13.4328C47.6583 13.7574 47.1077 13.9187 46.4295 13.9187C45.6947 13.9187 44.985 13.7291 44.2963 13.349V12.0734C44.6909 12.3394 45.0405 12.5321 45.3451 12.6525C45.6507 12.7761 45.9741 12.8358 46.3154 12.8358C46.8931 12.8358 47.1831 12.6525 47.1831 12.2912C47.1831 12.1656 47.1245 12.0493 47.0072 11.9383C46.8931 11.8294 46.6137 11.6953 46.1741 11.5362C45.7313 11.3801 45.3817 11.2324 45.1232 11.0963C44.8657 10.9602 44.6417 10.7675 44.4533 10.5151C44.267 10.2648 44.1738 9.94326 44.1738 9.55053C44.1738 9.04051 44.3769 8.63207 44.7861 8.31894C45.1965 8.00685 45.7439 7.85186 46.4295 7.85186C47.0617 7.85186 47.7295 8.00371 48.4307 8.30847Z" fill="#747373"/>
            <path d="M50.5937 11.3827H52.3292C52.2622 10.8015 51.9722 10.5114 51.4625 10.5114C50.9454 10.5114 50.6565 10.8015 50.5937 11.3827ZM53.3664 12.6028V13.3945C52.886 13.7464 52.2936 13.9192 51.5839 13.9192C50.8826 13.9192 50.3206 13.7307 49.8998 13.3547C49.479 12.9767 49.2676 12.4771 49.2676 11.8561C49.2676 11.2445 49.4654 10.7439 49.8611 10.3512C50.2577 9.95843 50.7602 9.76049 51.3725 9.76049C51.989 9.76049 52.4914 9.96785 52.886 10.3815C53.2785 10.7952 53.4648 11.3492 53.4386 12.0446H50.5676C50.5937 12.408 50.7225 12.6855 50.9538 12.8824C51.1841 13.0772 51.497 13.1757 51.8854 13.1757C52.3574 13.1757 52.8515 12.984 53.3664 12.6028Z" fill="#747373"/>
            <path d="M55.4408 9.84566V10.9903H55.4576C55.8218 10.1714 56.2457 9.76083 56.7314 9.76083C56.9627 9.76083 57.2401 9.88231 57.5656 10.1263L57.2191 11.2385C56.9083 11.0416 56.6592 10.9442 56.4739 10.9442C56.184 10.9442 55.938 11.1233 55.7391 11.4825C55.5402 11.8449 55.4408 12.0544 55.4408 12.1141V13.8441H54.1816V9.84566H55.4408Z" fill="#747373"/>
            <path d="M59.5486 13.9191L57.7012 9.84524H59.0493L59.895 12.0487L60.7575 9.84524H62.091L60.2519 13.9191H59.5486Z" fill="#747373"/>
            <path d="M63.7968 13.8444H62.5377V9.84588H63.7968V13.8444ZM62.4707 8.54516C62.4707 8.35351 62.5377 8.19118 62.6738 8.05399C62.8098 7.91889 62.9721 7.85187 63.1605 7.85187C63.352 7.85187 63.5163 7.91889 63.6524 8.05399C63.7885 8.19118 63.8554 8.35351 63.8554 8.54516C63.8554 8.73367 63.7885 8.89809 63.6524 9.03528C63.5163 9.17248 63.352 9.2416 63.1605 9.2416C62.9721 9.2416 62.8098 9.17248 62.6738 9.03528C62.5377 8.89809 62.4707 8.73367 62.4707 8.54516Z" fill="#747373"/>
            <path d="M68.1694 12.7512V13.654C67.6796 13.8309 67.2295 13.9189 66.8192 13.9189C66.1179 13.9189 65.5569 13.7315 65.1351 13.3544C64.7143 12.9774 64.5039 12.4768 64.5039 11.8568C64.5039 11.2473 64.7174 10.7478 65.1413 10.3529C65.5673 9.96022 66.1074 9.76124 66.7637 9.76124C67.1876 9.76124 67.6366 9.84816 68.1108 10.0241V10.9593C67.7643 10.7823 67.4231 10.6933 67.0861 10.6933C66.7114 10.6933 66.411 10.798 66.1849 11.0075C65.9588 11.2149 65.8468 11.4966 65.8468 11.8474C65.8468 12.2014 65.9567 12.4852 66.1755 12.702C66.3974 12.9177 66.6863 13.0277 67.0442 13.0277C67.309 13.0277 67.6848 12.9355 68.1694 12.7512" fill="#747373"/>
            <path d="M70.1757 13.8444H68.9176V9.84588H70.1757V13.8444ZM68.8496 8.54516C68.8496 8.35351 68.9187 8.19118 69.0527 8.05399C69.1887 7.91889 69.351 7.85187 69.5404 7.85187C69.7319 7.85187 69.8952 7.91889 70.0313 8.05399C70.1673 8.19118 70.2343 8.35351 70.2343 8.54516C70.2343 8.73367 70.1673 8.89809 70.0313 9.03528C69.8952 9.17248 69.7319 9.2416 69.5404 9.2416C69.351 9.2416 69.1887 9.17248 69.0527 9.03528C68.9187 8.89809 68.8496 8.73367 68.8496 8.54516Z" fill="#747373"/>
            <path d="M73.1339 13.1757C73.7347 13.1757 74.0351 12.7201 74.0351 11.8132C74.0351 10.945 73.7347 10.5114 73.1339 10.5114C72.8461 10.5114 72.621 10.6245 72.4588 10.8549C72.2955 11.0832 72.217 11.41 72.217 11.8404C72.217 12.7295 72.5226 13.1757 73.1339 13.1757ZM73.1339 9.76049C73.7619 9.76049 74.2905 9.94481 74.727 10.3124C75.1624 10.679 75.3822 11.1911 75.3822 11.8467C75.3822 12.5054 75.1603 13.0165 74.7186 13.3767C74.2738 13.7412 73.7452 13.9192 73.1339 13.9192C72.4713 13.9192 71.9281 13.7286 71.5063 13.3411C71.0866 12.9547 70.873 12.4541 70.873 11.8404C70.873 11.2099 71.0887 10.7093 71.5189 10.3292C71.949 9.9511 72.487 9.76049 73.1339 9.76049" fill="#747373"/>
            <path d="M80.5706 12.7747V10.9126C80.3487 10.7597 80.1195 10.6854 79.8861 10.6854C79.5773 10.6854 79.3376 10.7922 79.1649 11.0069C78.9953 11.2226 78.9084 11.5242 78.9084 11.9117C78.9084 12.2688 78.9932 12.5568 79.1638 12.7726C79.3334 12.9883 79.5616 13.0972 79.8452 13.0972C80.0944 13.0972 80.3372 12.9894 80.5706 12.7747V12.7747ZM81.7973 8.07452V13.8439H80.5706V13.5298C80.2566 13.7884 79.8965 13.9193 79.4894 13.9193C78.9702 13.9193 78.5369 13.7245 78.1873 13.3392C77.8398 12.9538 77.666 12.4689 77.666 11.8876C77.666 11.2928 77.8429 10.8079 78.1956 10.4298C78.5494 10.0528 79.0016 9.86326 79.5563 9.86326C79.8986 9.86326 80.2388 9.94599 80.5706 10.1094V8.07452H81.7973V8.07452Z" fill="#747373"/>
            <path d="M83.6442 11.4441H85.3347C85.2698 10.8765 84.9882 10.5948 84.49 10.5948C83.9876 10.5948 83.706 10.8765 83.6442 11.4441ZM86.3479 12.6349V13.4067C85.88 13.7471 85.3012 13.9188 84.6103 13.9188C83.9248 13.9188 83.3773 13.7345 82.9681 13.3659C82.5567 12.9983 82.3516 12.5123 82.3516 11.9049C82.3516 11.3101 82.5462 10.822 82.9293 10.4366C83.3156 10.0544 83.8065 9.86274 84.4041 9.86274C85.0039 9.86274 85.4958 10.0638 85.8789 10.4681C86.2631 10.8713 86.4431 11.4106 86.4169 12.0882H83.6191C83.6442 12.4422 83.7698 12.7155 83.9959 12.9061C84.2199 13.0967 84.5235 13.192 84.9034 13.192C85.3619 13.192 85.8454 13.0066 86.3479 12.6349Z" fill="#747373"/>
            <path d="M45.6821 21.5481H44.1738V15.4896H45.6821V21.5481Z" fill="#747373"/>
            <path d="M48.265 17.4547V17.9783C48.7015 17.5709 49.1767 17.3678 49.6875 17.3678C50.3919 17.3678 50.8818 17.6568 51.1633 18.2391C51.6574 17.6568 52.1964 17.3678 52.7773 17.3678C53.2483 17.3678 53.6325 17.5113 53.9308 17.7982C54.228 18.0831 54.3766 18.4569 54.3766 18.9177V21.5475H53.0903V19.1461C53.0903 18.8591 53.0243 18.6329 52.8904 18.4727C52.7574 18.3103 52.5711 18.2318 52.3335 18.2318C51.9567 18.2318 51.6186 18.4632 51.3172 18.9261V21.5475H50.0339V19.122C50.0339 18.834 49.9617 18.614 49.8194 18.4611C49.677 18.3072 49.4865 18.2318 49.25 18.2318C48.9108 18.2318 48.5822 18.4192 48.265 18.7994V21.5475H46.9766V17.4547H48.265Z" fill="#747373"/>
            <path d="M56.7201 18.6125V20.4944C56.9619 20.6746 57.21 20.7646 57.4654 20.7646C57.7773 20.7646 58.0254 20.6515 58.2085 20.4274C58.3907 20.2043 58.4838 19.9006 58.4838 19.5184C58.4838 19.1288 58.399 18.8251 58.2305 18.6093C58.062 18.3905 57.8234 18.2836 57.5177 18.2836C57.2592 18.2836 56.9944 18.3936 56.7201 18.6125ZM56.7201 17.4553V17.8103C57.0624 17.516 57.4528 17.3683 57.8893 17.3683C58.4221 17.3683 58.8711 17.5694 59.2385 17.9716C59.6059 18.3727 59.788 18.868 59.788 19.4514C59.788 20.109 59.6038 20.6358 59.2353 21.0327C58.868 21.4286 58.3802 21.6276 57.7721 21.6276C57.3973 21.6276 57.0467 21.5333 56.7201 21.3448V23.5933H55.4316V17.4553H56.7201V17.4553Z" fill="#747373"/>
            <path d="M63.439 21.5477V20.9622C63.0601 21.4052 62.6195 21.6273 62.116 21.6273C61.6722 21.6273 61.3101 21.489 61.0327 21.2146C60.7553 20.9402 60.6172 20.5601 60.6172 20.0752V17.4549H61.9057V19.9851C61.9057 20.5035 62.1202 20.7643 62.5504 20.7643C62.7943 20.7643 63.0005 20.669 63.1721 20.4784C63.3448 20.292 63.4307 20.1506 63.4307 20.0616V17.4549H64.7265V21.5477H63.439Z" fill="#747373"/>
            <path d="M66.9346 19.0287H68.7108C68.6428 18.4349 68.3455 18.1343 67.8232 18.1343C67.2936 18.1343 66.9974 18.4349 66.9346 19.0287ZM69.7722 20.2781V21.0897C69.2823 21.4479 68.6731 21.627 67.9499 21.627C67.2298 21.627 66.6541 21.4343 66.2229 21.0478C65.7927 20.6614 65.5781 20.1482 65.5781 19.5125C65.5781 18.8873 65.7791 18.3731 66.1841 17.9709C66.5882 17.5688 67.1042 17.3677 67.7332 17.3677C68.3623 17.3677 68.8783 17.5792 69.2813 18.0034C69.6853 18.4265 69.8726 18.9952 69.8465 19.7052H66.9084C66.9346 20.077 67.0655 20.3629 67.302 20.564C67.5396 20.764 67.8578 20.8635 68.2555 20.8635C68.7401 20.8635 69.2457 20.6677 69.7722 20.2781" fill="#747373"/>
            <path d="M73.5281 17.6715V18.5868C73.0383 18.2862 72.583 18.1333 72.1643 18.1333C71.8555 18.1333 71.6996 18.2412 71.6996 18.4517C71.6996 18.5072 71.7331 18.5606 71.7979 18.614C71.8649 18.6685 72.1119 18.7816 72.5463 18.9544C72.9807 19.1272 73.2853 19.3251 73.4643 19.5513C73.6432 19.7765 73.7343 20.0247 73.7343 20.2949C73.7343 20.7201 73.5899 21.0489 73.2999 21.2804C73.01 21.5108 72.5987 21.627 72.0648 21.627C71.5164 21.627 71.0265 21.5286 70.5995 21.3286V20.4216C71.126 20.6531 71.5656 20.7683 71.9215 20.7683C72.337 20.7683 72.5463 20.6667 72.5463 20.4656C72.5463 20.3871 72.5076 20.3138 72.4301 20.2446C72.3527 20.1755 72.0942 20.054 71.6566 19.8833C71.217 19.7105 70.9177 19.5231 70.7555 19.3168C70.5932 19.1125 70.5137 18.8821 70.5137 18.6318C70.5137 18.258 70.6686 17.9542 70.9784 17.7197C71.2882 17.484 71.6985 17.3678 72.2072 17.3678C72.6949 17.3678 73.1366 17.4704 73.5281 17.6715Z" fill="#747373"/>
            <path d="M77.4705 17.4547V18.3355H75.981V20.0226C75.981 20.2247 76.0354 20.3839 76.1464 20.5012C76.2573 20.6185 76.4112 20.6761 76.609 20.6761C76.8738 20.6761 77.1627 20.5986 77.4705 20.4384V21.3715C77.0602 21.5412 76.6635 21.627 76.2804 21.627C75.7769 21.627 75.3865 21.4972 75.1081 21.2364C74.8317 20.9767 74.6925 20.5955 74.6925 20.0917V18.3355H74.1074V18.0831L75.8188 16.1676H75.981V17.4547H77.4705Z" fill="#747373"/>
            <path d="M80.2459 20.8635C80.8613 20.8635 81.1701 20.3996 81.1701 19.4685C81.1701 18.5804 80.8613 18.1343 80.2459 18.1343C79.9518 18.1343 79.7215 18.2537 79.554 18.4872C79.3876 18.7229 79.3049 19.058 79.3049 19.4958C79.3049 20.4079 79.6189 20.8635 80.2459 20.8635ZM80.2459 17.3677C80.8875 17.3677 81.4318 17.5573 81.8787 17.9332C82.3246 18.3082 82.5486 18.8328 82.5486 19.5041C82.5486 20.1786 82.3215 20.7012 81.8683 21.0719C81.4129 21.4426 80.8739 21.627 80.2459 21.627C79.5666 21.627 79.0108 21.4301 78.5795 21.0352C78.1483 20.6383 77.9316 20.1273 77.9316 19.4958C77.9316 18.8538 78.1525 18.3375 78.5921 17.9489C79.0317 17.5625 79.5844 17.3677 80.2459 17.3677" fill="#747373"/>
            <path d="M86.1962 17.6715V18.5868C85.7043 18.2862 85.2511 18.1333 84.8303 18.1333C84.5215 18.1333 84.3666 18.2412 84.3666 18.4517C84.3666 18.5072 84.3991 18.5606 84.464 18.614C84.5299 18.6685 84.779 18.7816 85.2123 18.9544C85.6467 19.1272 85.9534 19.3251 86.1313 19.5513C86.3114 19.7765 86.3993 20.0247 86.3993 20.2949C86.3993 20.7201 86.2569 21.0489 85.967 21.2804C85.6781 21.5108 85.2668 21.627 84.7319 21.627C84.1824 21.627 83.6947 21.5286 83.2655 21.3286V20.4216C83.792 20.6531 84.2316 20.7683 84.5885 20.7683C85.0041 20.7683 85.2123 20.6667 85.2123 20.4656C85.2123 20.3871 85.1736 20.3138 85.0972 20.2446C85.0198 20.1755 84.7612 20.054 84.3227 19.8833C83.8852 19.7105 83.5837 19.5231 83.4225 19.3168C83.2603 19.1125 83.1797 18.8821 83.1797 18.6318C83.1797 18.258 83.3346 17.9542 83.6455 17.7197C83.9563 17.484 84.3656 17.3678 84.8743 17.3678C85.3631 17.3678 85.8037 17.4704 86.1962 17.6715Z" fill="#747373"/>
            <path d="M45.6821 29.2298H44.1738V23.1703H45.6821V29.2298V29.2298Z" fill="#747373"/>
            <path d="M48.2454 25.1354V25.7167C48.6253 25.2705 49.0681 25.0475 49.5757 25.0475C50.0028 25.0475 50.3576 25.1836 50.6413 25.457C50.926 25.7282 51.0683 26.1178 51.0683 26.6247V29.2292H49.7798V26.7336C49.7798 26.1848 49.5684 25.9115 49.1424 25.9115C48.8409 25.9115 48.5416 26.1366 48.2454 26.588V29.2292H46.959V25.1354H48.2454Z" fill="#747373"/>
            <path d="M55.0242 25.1354V26.0162H53.5337V27.7023C53.5337 27.9055 53.5882 28.0657 53.7012 28.183C53.8111 28.2992 53.965 28.3579 54.1618 28.3579C54.4276 28.3579 54.7155 28.2783 55.0242 28.1201V29.0522C54.615 29.2229 54.2172 29.3088 53.832 29.3088C53.3286 29.3088 52.9392 29.1769 52.6629 28.9182C52.3855 28.6564 52.2453 28.2741 52.2453 27.7735V26.0162H51.6602V25.7638L53.3725 23.8483H53.5337V25.1354H55.0242Z" fill="#747373"/>
            <path d="M56.8478 26.7104H58.625C58.556 26.1145 58.2597 25.816 57.7364 25.816C57.2078 25.816 56.9116 26.1145 56.8478 26.7104ZM59.6874 27.9577V28.7693C59.1955 29.1296 58.5874 29.3087 57.862 29.3087C57.1419 29.3087 56.5673 29.1149 56.136 28.7285C55.7069 28.3421 55.4902 27.8299 55.4902 27.1932C55.4902 26.568 55.6933 26.0527 56.0973 25.6516C56.5034 25.2495 57.0184 25.0473 57.6453 25.0473C58.2754 25.0473 58.7915 25.261 59.1944 25.6841C59.5984 26.1072 59.7868 26.6748 59.7607 27.3869H56.8227C56.8478 27.7587 56.9786 28.0436 57.2173 28.2447C57.4528 28.4447 57.7709 28.5442 58.1708 28.5442C58.6533 28.5442 59.1588 28.3483 59.6874 27.9577Z" fill="#747373"/>
            <path d="M61.9458 25.1354V26.3063H61.9615C62.3352 25.4674 62.7696 25.0475 63.2667 25.0475C63.5043 25.0475 63.788 25.1721 64.1198 25.4193L63.765 26.5618C63.4468 26.3607 63.1935 26.2581 63.003 26.2581C62.7036 26.2581 62.4545 26.4435 62.2493 26.8132C62.0473 27.1818 61.9458 27.3965 61.9458 27.4583V29.2292H60.6562V25.1354H61.9458Z" fill="#747373"/>
            <path d="M65.9534 25.1354V25.7167C66.3313 25.2705 66.7751 25.0475 67.2838 25.0475C67.7087 25.0475 68.0646 25.1836 68.3493 25.457C68.634 25.7282 68.7753 26.1178 68.7753 26.6247V29.2292H67.4879V26.7336C67.4879 26.1848 67.2764 25.9115 66.8504 25.9115C66.548 25.9115 66.2476 26.1366 65.9534 26.588V29.2292H64.666V25.1354H65.9534Z" fill="#747373"/>
            <path d="M71.9296 28.5442C72.5461 28.5442 72.8528 28.0813 72.8528 27.1503C72.8528 26.2601 72.5461 25.8171 71.9296 25.8171C71.6344 25.8171 71.4052 25.9333 71.2377 26.1679C71.0713 26.4025 70.9897 26.7387 70.9897 27.1754C70.9897 28.0876 71.3016 28.5442 71.9296 28.5442ZM71.9296 25.0473C72.5712 25.0473 73.1134 25.2358 73.5624 25.6129C74.0073 25.9888 74.2323 26.5135 74.2323 27.1848C74.2323 27.8593 74.0052 28.3829 73.5509 28.7526C73.0956 29.1233 72.5566 29.3087 71.9296 29.3087C71.2503 29.3087 70.6945 29.1108 70.2633 28.7149C69.831 28.3201 69.6133 27.8079 69.6133 27.1754C69.6133 26.5334 69.8362 26.0182 70.2748 25.6317C70.7175 25.2432 71.2691 25.0473 71.9296 25.0473" fill="#747373"/>
            <path d="M77.8759 25.3522V26.2675C77.385 25.967 76.9287 25.8162 76.51 25.8162C76.2012 25.8162 76.0463 25.9219 76.0463 26.1324C76.0463 26.1879 76.0788 26.2424 76.1447 26.2948C76.2096 26.3482 76.4587 26.4634 76.8931 26.6341C77.3253 26.8069 77.632 27.0059 77.811 27.2321C77.991 27.4583 78.08 27.7054 78.08 27.9756C78.08 28.3998 77.9345 28.7297 77.6467 28.9611C77.3567 29.1915 76.9454 29.3088 76.4105 29.3088C75.8621 29.3088 75.3733 29.2093 74.9462 29.0082V28.1013C75.4727 28.3348 75.9123 28.449 76.2682 28.449C76.6837 28.449 76.892 28.3485 76.892 28.1463C76.892 28.0688 76.8533 27.9945 76.7769 27.9254C76.7005 27.8573 76.443 27.7358 76.0013 27.563C75.5648 27.3923 75.2634 27.2038 75.1022 26.9985C74.941 26.7933 74.8594 26.5639 74.8594 26.3126C74.8594 25.9387 75.0143 25.636 75.3251 25.4004C75.636 25.1658 76.0453 25.0475 76.555 25.0475C77.0427 25.0475 77.4834 25.1501 77.8759 25.3522Z" fill="#747373"/>
        </svg>

        <!-- CLAVE ÚNICA LOGO  -->
        <svg id="clave-unica" class="max-w-36 max-h-6 min-w-36 min-h-6" xmlns="http://www.w3.org/2000/svg" width="146" height="25" viewBox="0 0 146 25" fill="none">
            <path d="M131.482 16.9602H131.4C131.049 16.9602 130.746 17.1626 130.599 17.4572C130.601 17.4527 130.601 17.4504 130.603 17.4459C130.603 17.4459 130.581 17.4796 130.558 17.5471C130.56 17.5426 130.562 17.5403 130.565 17.5359C130.56 17.5448 130.558 17.5538 130.553 17.5651C130.556 17.5606 130.556 17.5538 130.558 17.5493C130.476 17.7157 130.345 17.9069 130.275 18.0035C129.604 18.9389 128.513 19.5752 127.319 19.5752C125.358 19.5752 123.673 17.8619 123.673 15.9169C123.673 13.8146 125.358 12.2384 127.319 12.2384C128.59 12.2384 129.743 12.9017 130.399 13.9383C130.461 14.035 130.492 14.0934 130.506 14.1204C130.494 14.0957 130.483 14.0665 130.474 14.0372C130.592 14.3902 130.929 14.6488 131.326 14.6488H131.362C131.856 14.6488 132.259 14.2486 132.259 13.7584V13.7157C132.259 13.5043 132.184 13.311 132.06 13.1603C131.12 11.6471 129.412 10.606 127.321 10.606C124.105 10.606 121.793 13.0591 121.793 15.9192C121.793 18.8197 123.987 21.2121 127.321 21.2121C129.638 21.2121 131.405 20.0541 132.268 18.3745C132.34 18.2464 132.383 18.098 132.383 17.9406V17.8529C132.379 17.3605 131.976 16.9602 131.482 16.9602Z" fill="black"/>
            <path d="M145.995 15.9362C145.995 15.9159 145.998 15.8978 145.998 15.8774C145.998 13.0404 143.624 10.606 140.326 10.606C137.026 10.606 134.653 13.0381 134.653 15.8774C134.653 18.7552 136.906 21.1284 140.326 21.1284C141.894 21.1284 143.214 20.6284 144.187 19.8117V20.3298C144.187 20.3343 144.185 20.3388 144.185 20.3434C144.185 20.3479 144.187 20.3524 144.187 20.3569V20.3637C144.199 20.8343 144.597 21.2121 145.092 21.2121C145.585 21.2121 145.986 20.8343 145.998 20.3637V20.3569C145.998 20.3524 146 20.3479 146 20.3434C146 20.3388 145.998 20.3343 145.998 20.3298V15.9362H145.995ZM140.324 19.5085C138.313 19.5085 136.583 17.8095 136.583 15.8797C136.583 13.7937 138.313 12.2304 140.324 12.2304C142.335 12.2304 144.065 13.7937 144.065 15.8797C144.067 17.8095 142.337 19.5085 140.324 19.5085Z" fill="black"/>
            <path d="M119.523 11.4723C119.523 10.9953 119.016 10.606 118.389 10.606C117.761 10.606 117.254 10.993 117.254 11.4723C117.254 11.4768 117.257 11.4813 117.257 11.4858V20.3346C117.257 20.3391 117.254 20.3436 117.254 20.3481C117.254 20.3526 117.257 20.3571 117.257 20.3616V20.3684C117.272 20.8364 117.77 21.2121 118.389 21.2121C119.008 21.2121 119.506 20.8364 119.52 20.3684V20.3616C119.52 20.3571 119.523 20.3526 119.523 20.3481C119.523 20.3436 119.52 20.3391 119.52 20.3346V11.4858C119.52 11.4813 119.523 11.4768 119.523 11.4723Z" fill="black"/>
            <path d="M114.228 15.3869C114.228 15.3846 114.228 15.3801 114.228 15.3779C114.228 15.3621 114.225 15.3486 114.225 15.3329V15.1978H114.218C114.124 12.6656 112.05 10.606 108.933 10.606C105.815 10.606 103.743 12.6656 103.647 15.1978H103.637V20.3658C103.637 20.834 104.044 21.2121 104.543 21.2121C105.042 21.2121 105.449 20.8317 105.449 20.3658V15.3734C105.449 13.62 107.051 12.0804 108.93 12.0804C110.807 12.0804 112.409 13.6222 112.409 15.3779V20.3658C112.409 20.834 112.816 21.2121 113.315 21.2121C113.814 21.2121 114.221 20.8317 114.221 20.3658V15.5917C114.221 15.585 114.223 15.5782 114.223 15.5714C114.223 15.5647 114.221 15.5602 114.221 15.5557L114.228 15.3869Z" fill="black"/>
            <path d="M62.031 15.8767C62.031 13.0395 59.6579 10.606 56.3574 10.606C53.0569 10.606 50.6838 13.0395 50.6838 15.8767C50.6838 18.7541 52.9361 21.1274 56.3574 21.1274C57.924 21.1274 59.2465 20.6277 60.218 19.8114V20.3288C60.218 20.3333 60.2157 20.3378 60.2157 20.3422C60.2157 20.3467 60.218 20.3511 60.218 20.3556V20.3623C60.2297 20.8329 60.6294 21.2121 61.1222 21.2121C61.6149 21.2121 62.0147 20.8329 62.0263 20.3623V20.3556C62.0263 20.3511 62.0287 20.3467 62.0287 20.3422C62.0287 20.3378 62.0263 20.3333 62.0263 20.3288V15.9325C62.031 15.9147 62.031 15.8946 62.031 15.8767ZM56.3574 19.5058C54.3446 19.5058 52.6153 17.8061 52.6153 15.8767C52.6153 13.7912 54.3446 12.2276 56.3574 12.2276C58.3702 12.2276 60.0995 13.7912 60.0995 15.8767C60.0995 17.8061 58.3702 19.5058 56.3574 19.5058Z" fill="black"/>
            <path d="M48.2956 19.5709H48.2932H47.7297C47.1228 19.5709 46.5158 19.1803 46.5158 18.0268V7.7257C46.5158 7.71667 46.5182 7.70764 46.5182 7.69861C46.5182 7.68958 46.5158 7.68055 46.5158 7.67152V7.64443H46.5134C46.482 7.18389 46.0781 6.81818 45.5752 6.81818C45.0746 6.81818 44.6684 7.18389 44.6369 7.64443H44.6321V18.1645C44.6321 20.2933 45.7831 21.2121 47.5218 21.2121H48.2956V21.2031C48.7792 21.2031 49.1709 20.8374 49.1709 20.3859C49.1685 19.9366 48.7768 19.5709 48.2956 19.5709Z" fill="black"/>
            <path d="M74.4005 9.93791C73.964 9.72634 73.4372 9.90264 73.2213 10.3352L69.2305 18.3701L65.2135 10.3352C64.9976 9.905 64.4709 9.72634 64.0343 9.94026C63.5978 10.1542 63.4198 10.676 63.6357 11.1086L68.4427 20.7279C68.5922 21.0241 68.8959 21.2121 69.2305 21.2121C69.565 21.2121 69.8711 21.0241 70.0182 20.7255L74.7968 11.1062C75.0174 10.6737 74.8371 10.1518 74.4005 9.93791Z" fill="black"/>
            <path d="M82.1595 10.606C78.878 10.606 76.4041 12.8858 76.4041 15.9091C76.4041 19.0482 78.9178 21.2121 82.5177 21.2121C84.1139 21.2121 85.4832 20.798 86.5856 19.9787C86.6956 19.8919 86.9811 19.6359 86.9811 19.3598C86.9811 18.8812 86.4756 18.3936 85.9794 18.3936C85.7102 18.3936 85.5791 18.4448 85.4083 18.5539C84.5961 19.0793 83.7043 19.5936 82.5645 19.5936C80.6733 19.5936 79.0817 18.6764 78.6814 17.0757L78.5457 16.5324H86.5856C87.2831 16.5324 87.7512 16.1072 87.7512 15.4772C87.7535 13.5937 86.2345 10.606 82.1595 10.606ZM78.5527 14.9273C78.8968 13.2353 80.3877 12.2246 82.0776 12.2246C83.7745 12.2246 85.3474 13.2598 85.6166 14.9273H78.5527Z" fill="black"/>
            <path d="M95.4294 6.81819C95.1156 6.81819 94.8134 6.64359 94.6588 6.33561C94.4363 5.89668 94.6003 5.35104 95.0266 5.12066L100.095 2.37552C100.519 2.14514 101.046 2.31489 101.269 2.75625C101.491 3.19518 101.327 3.74082 100.901 3.97119L95.8323 6.71634C95.7035 6.78666 95.5653 6.81819 95.4294 6.81819Z" fill="black"/>
            <path d="M10.2124 15.9091C10.839 15.9091 11.3471 15.4003 11.3471 14.7727C11.3471 14.1451 10.839 13.6364 10.2124 13.6364C9.58567 13.6364 9.07764 14.1451 9.07764 14.7727C9.07764 15.4003 9.58567 15.9091 10.2124 15.9091Z" fill="black"/>
            <path d="M10.5907 25C4.75087 25 0 20.2552 0 14.4254C0 10.1649 2.53772 6.34203 6.46777 4.68204C6.90522 4.49579 7.41088 4.70067 7.59433 5.13836C7.78014 5.57606 7.57552 6.07894 7.13806 6.2652C3.84773 7.65511 1.7216 10.8587 1.7216 14.4254C1.7216 19.3099 5.70104 23.2818 10.5907 23.2818C15.4803 23.2818 19.4597 19.3076 19.4597 14.4254C19.4597 10.7842 17.2748 7.55733 13.8904 6.20234C13.4506 6.02539 13.2366 5.52484 13.413 5.08481C13.5894 4.64479 14.0903 4.4306 14.5325 4.60754C18.5707 6.22562 21.1813 10.0787 21.1813 14.4254C21.1813 20.2575 16.4305 25 10.5907 25Z" fill="black"/>
            <path d="M10.7683 10.6061C10.2515 10.6061 9.83398 10.2023 9.83398 9.70374V0.902325C9.83398 0.403803 10.2515 0 10.7683 0H14.195C14.7118 0 15.1293 0.403803 15.1293 0.902325C15.1293 1.40085 14.7118 1.80465 14.195 1.80465H11.7052V9.70374C11.7026 10.2023 11.2826 10.6061 10.7683 10.6061Z" fill="black"/>
            <path d="M10.5907 19.697C7.67046 19.697 5.29541 17.318 5.29541 14.3939C5.29541 11.4699 7.67046 9.09091 10.5907 9.09091C13.511 9.09091 15.8861 11.4699 15.8861 14.3939C15.8861 17.318 13.511 19.697 10.5907 19.697ZM10.5907 10.7728C8.59691 10.7728 6.97504 12.3986 6.97504 14.3939C6.97504 16.3916 8.59691 18.0151 10.5907 18.0151C12.5846 18.0151 14.2065 16.3893 14.2065 14.3939C14.2088 12.3986 12.5846 10.7728 10.5907 10.7728Z" fill="black"/>
            <path d="M35.4816 21.2121C31.3507 21.2121 27.9897 17.8136 27.9897 13.6364C27.9897 9.45916 31.3507 6.06061 35.4816 6.06061C38.1087 6.06061 40.5773 7.48049 41.9226 9.76604C42.1604 10.1691 42.0291 10.6913 41.6305 10.9317C41.2319 11.1722 40.7155 11.0394 40.48 10.6363C39.4359 8.86373 37.5199 7.76218 35.4816 7.76218C32.277 7.76218 29.6702 10.3981 29.6702 13.6387C29.6702 16.8792 32.277 19.5151 35.4816 19.5151C37.7373 19.5151 39.8096 18.1777 40.7585 16.1051C40.9533 15.6792 41.4516 15.496 41.8751 15.6906C42.2963 15.8876 42.4798 16.3914 42.285 16.8174C41.0597 19.4877 38.3918 21.2121 35.4816 21.2121Z" fill="black"/>
            <path d="M101.331 16.3133C101.331 19.3113 98.8182 21.7515 95.7313 21.7515C92.6444 21.7515 90.1318 19.3113 90.1318 16.3133V8.58107C90.1318 8.12002 90.5162 7.74667 90.991 7.74667C91.4657 7.74667 91.8501 8.12002 91.8501 8.58107V16.3133C91.8501 18.3914 93.5916 20.0827 95.7313 20.0827C97.8711 20.0827 99.6125 18.3914 99.6125 16.3133V8.58107C99.6125 8.12002 99.9969 7.74667 100.472 7.74667C100.946 7.74667 101.331 8.12002 101.331 8.58107V16.3133Z" fill="black"/>
        </svg>

        <!-- LOGO WARNING  -->
        <svg id="warning-icon" width="22" height="18" viewBox="0 0 22 18" fill="none" xmlns="http://www.w3.org/2000/svg">
            <path fill-rule="evenodd" clip-rule="evenodd" d="M13.133 1.1652L21.1917 14.6375C22.0899 16.1679 20.9173 18.023 19.071 17.9998H2.95361C1.08239 17.9998 -0.0902373 16.1447 0.807946 14.6375L8.86665 1.1652C9.78978 -0.388401 12.2099 -0.388401 13.133 1.1652ZM10.7546 4.30298H11.1253C11.667 4.30298 12.1233 4.73582 12.0948 5.24983L11.9237 10.9534C11.9237 11.1698 11.7241 11.3592 11.496 11.3592H10.3839C10.1558 11.3592 9.95622 11.1968 9.95622 10.9534L9.78514 5.24983C9.75662 4.73582 10.2128 4.30298 10.7546 4.30298ZM10.9542 15.5253C10.1558 15.5253 9.5 14.9031 9.5 14.1456C9.5 13.3881 10.1558 12.7659 10.9542 12.7659C11.7526 12.7659 12.4084 13.3881 12.4084 14.1456C12.4369 14.9031 11.7811 15.5253 10.9542 15.5253Z" fill="#FC9700"/>
        </svg>


        <!-- ARROW DOWN  -->
        <svg id="arrow-down" xmlns="http://www.w3.org/2000/svg" viewBox="0 0 8 4" fill="none">
            <path fill-rule="evenodd" clip-rule="evenodd" d="M0 0L4 4L8 0H0Z" fill="white"/>
        </svg>

        <!-- LOCK ICON  -->
        <svg id="lock-icon" xmlns="http://www.w3.org/2000/svg" viewBox="0 0 10 12" fill="none">
        <path d="M8.35521 4.85311V1.68008C8.35521 0.797748 7.63754 0.0800781 6.75521 0.0800781H3.2567C2.37437 0.0800781 1.65671 0.797748 1.65671 1.68008V4.85311C1.09081 4.93811 0.65625 5.425 0.65625 6.01471V10.7653C0.65625 11.415 1.18295 11.9414 1.83232 11.9414H8.17974C8.82893 11.9414 9.35581 11.4151 9.35581 10.7653V6.01471C9.35563 5.42507 8.92106 4.9381 8.35519 4.8532L8.35521 4.85311ZM3.2567 1.23208H6.75521C7.00228 1.23208 7.20326 1.43306 7.20326 1.68013V4.83876H2.80875V1.68013C2.80875 1.43306 3.00973 1.23208 3.2567 1.23208ZM5.00598 9.67575C4.36893 9.67575 3.85268 9.1595 3.85268 8.52244C3.85268 7.88539 4.36893 7.36905 5.00598 7.36905C5.64303 7.36905 6.15928 7.88539 6.15928 8.52244C6.15928 9.1595 5.64303 9.67575 5.00598 9.67575Z" fill="#333333"/>
        </svg>

        <!-- LOGOUT ICON  -->
        <svg id="logout-icon" width="18" height="18" viewBox="0 0 18 18" fill="currentColor" xmlns="http://www.w3.org/2000/svg">
        <path d="M11.144 2.71533H3.78293C3.5389 2.71533 3.30485 2.81227 3.1323 2.98483C2.95974 3.15739 2.86279 3.39143 2.86279 3.63547V14.6771C2.86279 14.9212 2.95974 15.1552 3.1323 15.3278C3.30485 15.5003 3.5389 15.5973 3.78293 15.5973H11.144C11.3881 15.5973 11.6221 15.5003 11.7947 15.3278C11.9672 15.1552 12.0642 14.9212 12.0642 14.6771V11.9167H7.75333C7.63131 11.9167 7.51429 11.8682 7.42801 11.782C7.34173 11.6957 7.29326 11.5787 7.29326 11.4567C7.29326 11.3346 7.34173 11.2176 7.42801 11.1313C7.51429 11.0451 7.63131 10.9966 7.75333 10.9966H12.0642V3.63547C12.0642 3.39143 11.9672 3.15739 11.7947 2.98483C11.6221 2.81227 11.3881 2.71533 11.144 2.71533Z" fill="currentColor"/>
        <path d="M13.518 8.82498C13.43 8.74961 13.3168 8.71023 13.201 8.7147C13.0852 8.71917 12.9754 8.76717 12.8935 8.84911C12.8115 8.93104 12.7635 9.04088 12.759 9.15667C12.7546 9.27246 12.794 9.38567 12.8693 9.47368L14.4244 10.9965H12.0642V11.9166H14.4244L12.8693 13.5085C12.8212 13.5497 12.7821 13.6005 12.7544 13.6576C12.7268 13.7146 12.7113 13.7768 12.7089 13.8402C12.7064 13.9035 12.7171 13.9667 12.7402 14.0258C12.7633 14.0848 12.7984 14.1384 12.8433 14.1833C12.8881 14.2281 12.9417 14.2632 13.0008 14.2863C13.0598 14.3094 13.123 14.3201 13.1863 14.3177C13.2497 14.3152 13.3119 14.2997 13.369 14.2721C13.426 14.2445 13.4768 14.2053 13.518 14.1572L16.2048 11.4888L13.518 8.82498Z" fill="currentColor"/>
        </svg>

        <!-- LOADER  -->
        <svg id="loader" xmlns="http://www.w3.org/2000/svg" width="48" height="48" viewBox="0 0 24 24" fill="current"><path d="M12 22c5.421 0 10-4.579 10-10h-2c0 4.337-3.663 8-8 8s-8-3.663-8-8c0-4.336 3.663-8 8-8V2C6.579 2 2 6.58 2 12c0 5.421 4.579 10 10 10z"></path></svg>
        
        <!-- FINGERPRINT -->
        <svg id="fingerprint-icon" width="78" height="78" viewBox="0 0 78 78" fill="none" xmlns="http://www.w3.org/2000/svg">
        <path d="M9.64052 30.7734C9.22947 30.7772 8.82475 30.672 8.46747 30.4688C8.20542 30.3214 7.97537 30.1234 7.79079 29.8861C7.60621 29.6488 7.4708 29.3771 7.3925 29.0869C7.31419 28.7966 7.29456 28.4937 7.33474 28.1958C7.37493 27.8978 7.47413 27.6109 7.62653 27.3518C10.5637 22.4494 19.5002 11.0068 39.0002 11.0068C47.4507 11.0068 54.8622 13.2265 61.0184 17.6018C66.0854 21.1925 68.9251 25.2571 70.2779 27.2147C70.4495 27.4614 70.57 27.74 70.6322 28.034C70.6945 28.3281 70.6974 28.6316 70.6406 28.9267C70.5838 29.2218 70.4685 29.5026 70.3016 29.7525C70.1347 30.0025 69.9194 30.2164 69.6685 30.3819C69.1558 30.7209 68.5312 30.8468 67.9271 30.7331C67.3231 30.6193 66.7871 30.2748 66.4327 29.7725C63.9846 26.2519 56.5197 15.5391 39.0002 15.5391C21.8996 15.5391 14.1682 25.3972 11.6499 29.6248C11.4476 29.9778 11.1547 30.2704 10.8014 30.4723C10.4482 30.6743 10.0474 30.7782 9.64052 30.7734Z" fill="#FF0B80"/>
        <path d="M48.8245 75.5626C48.6301 75.5649 48.4361 75.5429 48.2472 75.4971C34.102 71.9932 28.8203 57.8526 28.6055 57.2646L28.572 57.1351C28.4562 56.7268 25.618 47.0301 29.975 41.3507C31.9723 38.7609 35.01 37.4325 39.0212 37.4325C42.7506 37.4325 45.441 38.5918 47.2904 40.9912C48.8139 42.9504 49.4233 45.3665 50.0128 47.6943C51.2514 52.5419 52.1456 55.0876 57.2933 55.3496C59.5541 55.4639 61.0395 54.1415 61.8819 53.0157C64.1595 49.946 64.5556 44.9415 62.8386 40.5235C60.6327 34.8213 52.8038 24.0704 38.9999 24.0704C33.1072 24.0704 27.6929 25.964 23.3511 29.5228C19.7574 32.4706 16.9101 36.6327 15.539 40.9105C12.9963 48.875 16.3311 61.3946 16.3631 61.5089C16.441 61.8003 16.4597 62.1043 16.4182 62.403C16.3767 62.7017 16.2758 62.9891 16.1215 63.2483C15.9672 63.5074 15.7625 63.733 15.5196 63.9117C15.2767 64.0905 15.0005 64.2188 14.7072 64.2892C14.1146 64.4467 13.484 64.3659 12.9503 64.0641C12.4167 63.7622 12.0225 63.2633 11.8522 62.6743C11.6999 62.103 8.1381 48.7501 11.0753 39.5455C14.2745 29.5715 24.1479 19.5168 39.0045 19.5168C45.8706 19.5168 52.3574 21.8508 57.7717 26.2581C61.9642 29.6858 65.3889 34.2896 67.1804 38.8919C69.458 44.7678 68.8471 51.3628 65.6281 55.6711C63.4831 58.5443 60.4286 60.0464 57.045 59.8834C48.2304 59.4416 46.646 53.2884 45.4913 48.8004C44.303 44.1965 43.5428 41.9769 39.0045 41.9769C36.5121 41.9769 34.7617 42.6624 33.6724 44.0823C32.1871 46.0247 32.0713 49.0609 32.2358 51.2638C32.3438 52.7985 32.6041 54.3188 33.0128 55.8021C33.3754 56.7161 38.0965 68.2943 49.4035 71.0959C49.6957 71.1651 49.9713 71.2917 50.2142 71.4684C50.4571 71.645 50.6624 71.8682 50.8184 72.1249C50.9743 72.3816 51.0776 72.6667 51.1224 72.9637C51.1672 73.2606 51.1525 73.5636 51.0792 73.8548C50.9413 74.3465 50.6462 74.7796 50.2391 75.0879C49.832 75.3963 49.3352 75.563 48.8245 75.5626Z" fill="#FF0B80"/>
        <path d="M30.6685 74.5174C30.3515 74.5181 30.0375 74.4549 29.7454 74.3316C29.4533 74.2083 29.189 74.0275 28.9683 73.7999C23.3072 67.8585 20.105 61.2148 18.8999 52.9075V52.8633C18.2235 47.3637 19.2138 39.5774 24.0659 34.224C27.6475 30.2738 32.6825 28.2659 39.0047 28.2659C46.4818 28.2659 52.3577 31.7424 56.0215 38.3038C58.6799 43.0706 59.2071 47.8207 59.2208 48.0157C59.2486 48.3164 59.2169 48.6196 59.1274 48.908C59.038 49.1963 58.8925 49.4643 58.6993 49.6963C58.5062 49.9284 58.2691 50.1201 58.0018 50.2604C57.7344 50.4008 57.442 50.487 57.1413 50.5141C56.5345 50.58 55.9262 50.4046 55.4476 50.0258C54.969 49.647 54.6586 49.0952 54.5834 48.4895C54.1821 45.6394 53.2598 42.8874 51.8626 40.3711C49.0229 35.3605 44.7024 32.8133 38.988 32.8133C34.0521 32.8133 30.1901 34.2987 27.5333 37.2313C23.7033 41.4588 22.9629 47.9715 23.4885 52.2798C24.5443 59.6258 27.3672 65.4697 32.3519 70.6921C32.5599 70.9085 32.7223 71.1646 32.8295 71.445C32.9366 71.7255 32.9862 72.0246 32.9754 72.3246C32.9646 72.6246 32.8936 72.9194 32.7666 73.1914C32.6396 73.4634 32.4592 73.7072 32.2361 73.9081C31.8065 74.2974 31.2483 74.5145 30.6685 74.5174Z" fill="#FF0B80"/>
        <path d="M56.7481 67.9727C51.797 67.9727 47.5877 66.6016 44.2194 63.8762C37.4523 58.4238 36.6936 49.5437 36.6601 49.1689C36.6124 48.5538 36.811 47.9449 37.2123 47.4762C37.6136 47.0075 38.1846 46.7174 38.7997 46.6697C39.4149 46.6221 40.0238 46.8207 40.4925 47.222C40.9612 47.6232 41.2513 48.1943 41.2989 48.8094C41.3157 48.9404 41.9921 56.2042 47.2084 60.3875C50.2948 62.8525 54.4203 63.8305 59.504 63.2592C60.1116 63.1855 60.7237 63.3554 61.2064 63.7316C61.6891 64.1079 62.0033 64.6599 62.0802 65.2671C62.1134 65.5671 62.0866 65.8706 62.0013 66.1601C61.916 66.4496 61.774 66.7192 61.5834 66.9532C61.3928 67.1872 61.1575 67.3808 60.8912 67.5229C60.625 67.665 60.3331 67.7527 60.0327 67.7808C58.9424 67.908 57.8458 67.9721 56.7481 67.9727ZM60.6603 7.43285C58.7286 6.17602 51.8792 2.4375 39.0001 2.4375C25.4811 2.4375 18.615 6.56754 17.0961 7.61719C16.9958 7.67876 16.9019 7.75021 16.8158 7.83047C16.8067 7.83926 16.7949 7.84464 16.7823 7.8457C16.5397 8.05747 16.3451 8.3185 16.2114 8.61141C16.0777 8.90431 16.0079 9.22236 16.0068 9.54434C16.011 9.84616 16.0747 10.1442 16.1942 10.4214C16.3138 10.6985 16.4869 10.9494 16.7035 11.1595C16.9202 11.3697 17.1762 11.535 17.4569 11.6461C17.7376 11.7571 18.0374 11.8117 18.3392 11.8066C18.823 11.8063 19.295 11.658 19.692 11.3816C19.7575 11.3329 25.667 6.99105 39.0046 6.99105C52.3423 6.99105 58.2837 11.3176 58.3477 11.3496C58.7533 11.6504 59.2459 11.8108 59.7508 11.8066C60.0529 11.8113 60.3529 11.7562 60.6336 11.6446C60.9143 11.533 61.1702 11.367 61.3867 11.1563C61.6031 10.9455 61.7758 10.6941 61.8948 10.4164C62.0138 10.1388 62.0768 9.84032 62.0802 9.53824C62.0803 9.08576 61.9452 8.64357 61.6922 8.26842C61.4392 7.89328 61.0799 7.6023 60.6603 7.43285Z" fill="#FF0B80"/>
        </svg>

        <!-- LICENSE -->
        <svg  id="license-icon" width="78" height="78" viewBox="0 0 78 78" fill="none" xmlns="http://www.w3.org/2000/svg">
        <path d="M65 13H13C9.41525 13 6.5 15.9152 6.5 19.5V58.5C6.5 62.0848 9.41525 65 13 65H65C68.5848 65 71.5 62.0848 71.5 58.5V19.5C71.5 15.9152 68.5848 13 65 13ZM28.3237 26C32.0645 26 34.8237 28.7592 34.8237 32.5C34.8237 36.2407 32.0645 39 28.3237 39C24.583 39 21.8238 36.2407 21.8238 32.5C21.8238 28.7592 24.5798 26 28.3237 26ZM40.3975 52H16.25V50.4888C16.25 46.0265 21.697 41.4375 28.3237 41.4375C34.9505 41.4375 40.3975 46.0265 40.3975 50.4888V52ZM61.75 48.75H48.75V42.25H61.75V48.75ZM61.75 35.75H45.5V29.25H61.75V35.75Z" fill="#FF0B80"/>
        </svg>

        <!-- BUTTON ARROW TOP -->
        <svg id="button-arrow-top-icon" width="16" height="16" viewBox="0 0 16 16" fill="none" xmlns="http://www.w3.org/2000/svg">
        <path fill-rule="evenodd" clip-rule="evenodd" d="M15 8C15 6.14348 14.2625 4.36301 12.9497 3.05025C11.637 1.7375 9.85652 0.999999 8 0.999999C6.14349 0.999999 4.36301 1.7375 3.05025 3.05025C1.7375 4.36301 1 6.14348 1 8C1 9.85651 1.7375 11.637 3.05025 12.9497C4.36301 14.2625 6.14348 15 8 15C9.85652 15 11.637 14.2625 12.9497 12.9497C14.2625 11.637 15 9.85652 15 8V8ZM6.99382e-07 8C8.8487e-07 5.87827 0.842855 3.84344 2.34315 2.34314C3.84344 0.842853 5.87827 -8.8487e-07 8 -6.99382e-07C10.1217 -5.13895e-07 12.1566 0.842854 13.6569 2.34315C15.1571 3.84344 16 5.87827 16 8C16 10.1217 15.1571 12.1566 13.6569 13.6569C12.1566 15.1571 10.1217 16 8 16C5.87827 16 3.84344 15.1571 2.34315 13.6569C0.842855 12.1566 5.13895e-07 10.1217 6.99382e-07 8V8ZM7.5 11.5C7.5 11.6326 7.55268 11.7598 7.64645 11.8536C7.74021 11.9473 7.86739 12 8 12C8.13261 12 8.25979 11.9473 8.35355 11.8536C8.44732 11.7598 8.5 11.6326 8.5 11.5L8.5 5.707L10.646 7.854C10.7399 7.94789 10.8672 8.00063 11 8.00063C11.1328 8.00063 11.2601 7.94789 11.354 7.854C11.4479 7.76011 11.5006 7.63278 11.5006 7.5C11.5006 7.36722 11.4479 7.23989 11.354 7.146L8.354 4.146C8.30756 4.09944 8.25238 4.06249 8.19163 4.03729C8.13089 4.01208 8.06577 3.99911 8 3.99911C7.93423 3.99911 7.86911 4.01208 7.80837 4.03729C7.74762 4.06249 7.69245 4.09944 7.646 4.146L4.646 7.146C4.55211 7.23989 4.49937 7.36722 4.49937 7.5C4.49937 7.63277 4.55211 7.76011 4.646 7.854C4.73989 7.94789 4.86722 8.00063 5 8.00063C5.13278 8.00063 5.26011 7.94789 5.354 7.854L7.5 5.707L7.5 11.5Z" fill="#6A3FB9"/>
        </svg>
    
        <!-- BUTTON ARROW BOTTOM -->
        <svg id="button-arrow-bottom-icon" width="16" height="16" viewBox="0 0 16 16" fill="none" xmlns="http://www.w3.org/2000/svg">
        <path fill-rule="evenodd" clip-rule="evenodd" d="M1 8C1 9.85652 1.7375 11.637 3.05025 12.9497C4.36301 14.2625 6.14348 15 8 15C9.85652 15 11.637 14.2625 12.9497 12.9497C14.2625 11.637 15 9.85652 15 8C15 6.14348 14.2625 4.36301 12.9497 3.05025C11.637 1.7375 9.85652 1 8 1C6.14348 1 4.36301 1.7375 3.05025 3.05025C1.7375 4.36301 1 6.14348 1 8ZM16 8C16 10.1217 15.1571 12.1566 13.6569 13.6569C12.1566 15.1571 10.1217 16 8 16C5.87827 16 3.84344 15.1571 2.34315 13.6569C0.842855 12.1566 0 10.1217 0 8C0 5.87827 0.842855 3.84344 2.34315 2.34315C3.84344 0.842855 5.87827 0 8 0C10.1217 0 12.1566 0.842855 13.6569 2.34315C15.1571 3.84344 16 5.87827 16 8ZM8.5 4.5C8.5 4.36739 8.44732 4.24021 8.35355 4.14645C8.25979 4.05268 8.13261 4 8 4C7.86739 4 7.74021 4.05268 7.64645 4.14645C7.55268 4.24021 7.5 4.36739 7.5 4.5V10.293L5.354 8.146C5.26011 8.05211 5.13278 7.99937 5 7.99937C4.86722 7.99937 4.73989 8.05211 4.646 8.146C4.55211 8.23989 4.49937 8.36722 4.49937 8.5C4.49937 8.63278 4.55211 8.76011 4.646 8.854L7.646 11.854C7.69245 11.9006 7.74762 11.9375 7.80837 11.9627C7.86911 11.9879 7.93423 12.0009 8 12.0009C8.06577 12.0009 8.13089 11.9879 8.19163 11.9627C8.25238 11.9375 8.30755 11.9006 8.354 11.854L11.354 8.854C11.4479 8.76011 11.5006 8.63278 11.5006 8.5C11.5006 8.36722 11.4479 8.23989 11.354 8.146C11.2601 8.05211 11.1328 7.99937 11 7.99937C10.8672 7.99937 10.7399 8.05211 10.646 8.146L8.5 10.293V4.5Z" fill="#6A3FB9"/>
        </svg>

         <!-- CARD -->
        <svg id="card-icon" width="86" height="86" viewBox="0 0 86 86" fill="none" xmlns="http://www.w3.org/2000/svg">
        <path d="M85.0998 79.5999L5.89977 0.399902L0.259766 6.0399L6.45977 12.2399C5.85977 13.3599 5.53977 14.6399 5.53977 15.9999L5.49977 63.9999C5.49977 68.4399 9.05976 71.9999 13.4998 71.9999H66.1798L79.4198 85.2399L85.0998 79.5999ZM13.4998 39.9999V23.9999H18.1798L34.1798 39.9999H13.4998ZM24.8198 7.9999H77.4998C81.9398 7.9999 85.4998 11.5599 85.4998 15.9999V63.9999C85.4998 65.3599 85.1798 66.6399 84.5798 67.7599L56.8198 39.9999H77.4998V23.9999H40.8198L24.8198 7.9999Z" fill="black"/>
        </svg>

        <!-- ZOOMPLUS -->
        <svg id='zoom-plus-icon' width="24" height="24" viewBox="0 0 24 24" fill="none" xmlns="http://www.w3.org/2000/svg">
        <path d="M12.2833 6.14242H9.2121V9.21364H6.14088V12.2849H9.2121V15.3561H12.2833V12.2849H15.3545V9.21364H12.2833V6.14242ZM24 21.3265L19.5636 16.8901C20.7798 15.1488 21.4985 13.0342 21.4985 10.7492C21.4985 4.8126 16.6844 0 10.7493 0C4.81414 0 0 4.8126 0 10.7492C0 16.6859 4.81258 21.4985 10.7493 21.4985C13.0342 21.4985 15.1503 20.7798 16.8917 19.5636L21.328 24L24 21.3265ZM10.7477 18.4288C6.5079 18.4288 3.06968 14.9921 3.06968 10.7508C3.06968 6.50944 6.5079 3.07274 10.7477 3.07274C14.9891 3.07274 18.4257 6.50944 18.4257 10.7508C18.4273 14.9921 14.9906 18.4288 10.7477 18.4288Z" fill="#6A3FB9"/>
        </svg>

        <!-- ZOOMMINUS -->
        <svg id='zoom-minus-icon' width="24" height="24" viewBox="0 0 24 24" fill="none" xmlns="http://www.w3.org/2000/svg">
        <path d="M24 21.3265L19.5636 16.8901C20.7798 15.1488 21.4985 13.0342 21.4985 10.7493C21.4985 4.81258 16.6844 0 10.7493 0C4.81414 0 0 4.81258 0 10.7493C0 16.6859 4.81258 21.4985 10.7493 21.4985C13.0342 21.4985 15.1503 20.7798 16.8917 19.5636L21.328 24L24 21.3265ZM10.7477 18.4288C6.50792 18.4288 3.06968 14.9921 3.06968 10.7508C3.06968 6.50944 6.50792 3.07276 10.7477 3.07276C14.9891 3.07276 18.4257 6.50944 18.4257 10.7508C18.4273 14.9921 14.9906 18.4288 10.7477 18.4288ZM6.1409 12.2849H15.3545V9.21364H6.1409V12.2849Z" fill="#6A3FB9"/>
        </svg>

        <!-- PRINT -->
        <svg id="print-icon" width="21" height="18" viewBox="0 0 21 18" fill="none" xmlns="http://www.w3.org/2000/svg">
        <path d="M6.75 0C6.15326 0 5.58097 0.237053 5.15901 0.65901C4.73705 1.08097 4.5 1.65326 4.5 2.25V3H3C2.20435 3 1.44129 3.31607 0.87868 3.87868C0.316071 4.44129 0 5.20435 0 6V12.75C0 13.3467 0.237053 13.919 0.65901 14.341C1.08097 14.7629 1.65326 15 2.25 15H4.5V15.75C4.5 16.3467 4.73705 16.919 5.15901 17.341C5.58097 17.7629 6.15326 18 6.75 18H14.4C14.9967 18 15.569 17.7629 15.991 17.341C16.4129 16.919 16.65 16.3467 16.65 15.75V15H18.75C19.3467 15 19.919 14.7629 20.341 14.341C20.7629 13.919 21 13.3467 21 12.75V6C21 5.20435 20.6839 4.44129 20.1213 3.87868C19.5587 3.31607 18.7956 3 18 3H16.5V2.25C16.5 1.65326 16.2629 1.08097 15.841 0.65901C15.419 0.237053 14.8467 0 14.25 0H6.75ZM15 3H6V2.25C6 2.05109 6.07902 1.86032 6.21967 1.71967C6.36032 1.57902 6.55109 1.5 6.75 1.5H14.25C14.4489 1.5 14.6397 1.57902 14.7803 1.71967C14.921 1.86032 15 2.05109 15 2.25V3ZM6.75 12H14.4C14.5989 12 14.7897 12.079 14.9303 12.2197C15.071 12.3603 15.15 12.5511 15.15 12.75V15.75C15.15 15.9489 15.071 16.1397 14.9303 16.2803C14.7897 16.421 14.5989 16.5 14.4 16.5H6.75C6.55109 16.5 6.36032 16.421 6.21967 16.2803C6.07902 16.1397 6 15.9489 6 15.75V12.75C6 12.5511 6.07902 12.3603 6.21967 12.2197C6.36032 12.079 6.55109 12 6.75 12Z" fill="#EDEDED"/>
        </svg>

        <!-- MAIL -->
        <svg id="mail-icon" width="20" height="16" viewBox="0 0 20 16" fill="currentColor" xmlns="http://www.w3.org/2000/svg" >
        <path d="M20 4.608V12.75C20.0001 13.5801 19.6824 14.3788 19.1123 14.9822C18.5422 15.5856 17.7628 15.948 16.934 15.995L16.75 16H3.25C2.41986 16.0001 1.62117 15.6824 1.01777 15.1123C0.414367 14.5422 0.0519987 13.7628 0.00500011 12.934L0 12.75V4.608L9.652 9.664C9.75938 9.72024 9.87879 9.74962 10 9.74962C10.1212 9.74962 10.2406 9.72024 10.348 9.664L20 4.608ZM3.25 2.36051e-08H16.75C17.5556 -9.70147e-05 18.3325 0.298996 18.93 0.839267C19.5276 1.37954 19.9032 2.12248 19.984 2.924L10 8.154L0.016 2.924C0.0935234 2.15431 0.44305 1.43752 1.00175 0.902463C1.56045 0.367409 2.29168 0.049187 3.064 0.00500014L3.25 2.36051e-08H16.75H3.25Z" fill="currentColor"/>
        </svg>
        <!-- INFO -->
        <svg id="info-icon" width="19" height="19" viewBox="0 0 19 19" fill="none" xmlns="http://www.w3.org/2000/svg">
        <path fill-rule="evenodd" clip-rule="evenodd" d="M9.6875 0.625C4.61349 0.625 0.5 4.73849 0.5 9.8125C0.5 14.8865 4.61349 19 9.6875 19C14.7615 19 18.875 14.8865 18.875 9.8125C18.875 4.73849 14.7615 0.625 9.6875 0.625ZM9.26989 4.80114C9.04837 4.80114 8.83593 4.88913 8.67929 5.04577C8.52266 5.2024 8.43466 5.41485 8.43466 5.63636C8.43466 5.85788 8.52266 6.07032 8.67929 6.22696C8.83593 6.38359 9.04837 6.47159 9.26989 6.47159H9.6875C9.90902 6.47159 10.1215 6.38359 10.2781 6.22696C10.4347 6.07032 10.5227 5.85788 10.5227 5.63636C10.5227 5.41485 10.4347 5.2024 10.2781 5.04577C10.1215 4.88913 9.90902 4.80114 9.6875 4.80114H9.26989ZM8.01705 8.14205C7.79553 8.14205 7.58309 8.23004 7.42645 8.38668C7.26981 8.54331 7.18182 8.75576 7.18182 8.97727C7.18182 9.19879 7.26981 9.41123 7.42645 9.56787C7.58309 9.7245 7.79553 9.8125 8.01705 9.8125H8.85227V12.3182H8.01705C7.79553 12.3182 7.58309 12.4062 7.42645 12.5628C7.26981 12.7194 7.18182 12.9319 7.18182 13.1534C7.18182 13.3749 7.26981 13.5874 7.42645 13.744C7.58309 13.9006 7.79553 13.9886 8.01705 13.9886H11.358C11.5795 13.9886 11.7919 13.9006 11.9485 13.744C12.1052 13.5874 12.1932 13.3749 12.1932 13.1534C12.1932 12.9319 12.1052 12.7194 11.9485 12.5628C11.7919 12.4062 11.5795 12.3182 11.358 12.3182H10.5227V8.97727C10.5227 8.75576 10.4347 8.54331 10.2781 8.38668C10.1215 8.23004 9.90902 8.14205 9.6875 8.14205H8.01705Z" fill="#00B593"/>
        </svg>

         <!-- FILE -->
        <svg  id="file-icon" width="16" height="20" viewBox="0 0 16 20" fill="none" xmlns="http://www.w3.org/2000/svg">
        <path d="M14.0263 0H6.01468V2.99643C6.01468 4.66112 4.6596 5.99287 3.01923 5.99287H0V18.0024C0 19.1201 0.903391 20 1.99697 20H14.0026C15.1199 20 15.9995 19.0963 15.9995 18.0024V1.99762C16.0233 0.903686 15.1437 0 14.0263 0ZM12.0294 15.0297H4.01771C3.47092 15.0297 3.01923 14.5779 3.01923 14.0309C3.01923 13.4839 3.47092 13.0321 4.01771 13.0321H12.0294C12.5762 13.0321 13.0278 13.4839 13.0278 14.0309C13.0278 14.5779 12.5762 15.0297 12.0294 15.0297ZM12.0294 11.0345H4.01771C3.47092 11.0345 3.01923 10.5826 3.01923 10.0357C3.01923 9.4887 3.47092 9.03686 4.01771 9.03686H12.0294C12.5762 9.03686 13.0278 9.4887 13.0278 10.0357C13.0278 10.5826 12.5762 11.0345 12.0294 11.0345Z" fill="#FF0B80"/>
        <path d="M4.01771 3.02021V0L0 4.01902H2.99545C3.56602 4.01902 4.01771 3.56718 4.01771 3.02021Z" fill="#FF0B80"/>
        </svg>

        <!-- INFO PURPLE -->
        <svg id="info-purple-icon" width="18" height="18" viewBox="0 0 18 18" fill="none" xmlns="http://www.w3.org/2000/svg">
        <path d="M9.00911 0.668213C4.39805 0.668213 0.667969 4.3983 0.667969 9.00936C0.667969 13.6204 4.39805 17.3505 9.00911 17.3505C13.6202 17.3505 17.3503 13.6204 17.3503 9.00936C17.3503 4.3983 13.6014 0.668213 9.00911 0.668213ZM9.00911 4.41704C9.70265 4.41704 10.265 4.97937 10.265 5.6729C10.265 6.36643 9.70265 6.92876 9.00911 6.92876C8.31558 6.92876 7.75326 6.36643 7.75326 5.6729C7.75326 4.97937 8.31558 4.41704 9.00911 4.41704ZM10.6773 13.5829H10.2462H8.578H8.16563C7.69702 13.5829 7.34088 13.208 7.34088 12.7582C7.34088 12.2896 7.71577 11.9334 8.16563 11.9334H8.578V9.42173H8.16563C7.69702 9.42173 7.34088 9.04685 7.34088 8.59699C7.34088 8.14713 7.71577 7.77224 8.16563 7.77224H9.42148C9.89009 7.77224 10.2462 8.14713 10.2462 8.59699V11.9334H10.6586C11.1272 11.9334 11.4833 12.3083 11.4833 12.7582C11.5021 13.208 11.1272 13.5829 10.6773 13.5829Z" fill="#6A3FB9"/>
        </svg>

        <!-- CREDIT CARD -->
        <svg id="credit-card-icon" width="24" height="16" viewBox="0 0 24 16" fill="none" xmlns="http://www.w3.org/2000/svg">
        <path d="M21.9975 0H2.00245C0.883436 0 0 0.882353 0 2V14C0 15.1176 0.883436 16 2.00245 16H4.35828H21.9975C23.1166 16 24 15.1176 24 14V2C24 0.882353 23.1166 0 21.9975 0ZM4.00491 4C4.00491 3.44118 4.44663 3 5.00613 3H9.01104C9.57055 3 10.0123 3.44118 10.0123 4V6C10.0123 6.55882 9.57055 7 9.01104 7H5.00613C4.44663 7 4.00491 6.55882 4.00491 6V4ZM5.00613 12C4.44663 12 4.00491 11.5588 4.00491 11C4.00491 10.4412 4.44663 10 5.00613 10C5.56564 10 6.00736 10.4412 6.00736 11C6.00736 11.5588 5.56564 12 5.00613 12ZM9.6589 12C9.09939 12 8.65767 11.5588 8.65767 11C8.65767 10.4412 9.09939 10 9.6589 10C10.2184 10 10.6601 10.4412 10.6601 11C10.6601 11.5588 10.2184 12 9.6589 12ZM14.3411 12C13.7816 12 13.3399 11.5588 13.3399 11C13.3399 10.4412 13.7816 10 14.3411 10C14.9006 10 15.3423 10.4412 15.3423 11C15.3423 11.5588 14.9006 12 14.3411 12ZM19.0233 12C18.4638 12 18.0221 11.5588 18.0221 11C18.0221 10.4412 18.4638 10 19.0233 10C19.5828 10 20.0245 10.4412 20.0245 11C20.0245 11.5588 19.5534 12 19.0233 12Z" fill="#EDEDED"/>
        </svg>
        <!-- RELOG-->
        <svg id="relog-icon" width="22" height="22" viewBox="0 0 22 22" fill="none" xmlns="http://www.w3.org/2000/svg">
        <path d="M11 0.5C5.20156 0.5 0.5 5.20156 0.5 11C0.5 16.7984 5.20156 21.5 11 21.5C16.7984 21.5 21.5 16.7984 21.5 11C21.5 5.20156 16.7984 0.5 11 0.5ZM15.1367 14.2273L14.4664 15.1414C14.4518 15.1613 14.4335 15.1781 14.4124 15.1909C14.3913 15.2037 14.3678 15.2122 14.3434 15.2159C14.319 15.2196 14.2942 15.2184 14.2702 15.2125C14.2463 15.2065 14.2237 15.1959 14.2039 15.1813L10.3273 12.3547C10.3032 12.3373 10.2836 12.3145 10.2701 12.2879C10.2566 12.2614 10.2497 12.2321 10.25 12.2023V5.75C10.25 5.64687 10.3344 5.5625 10.4375 5.5625H11.5648C11.668 5.5625 11.7523 5.64687 11.7523 5.75V11.5508L15.0945 13.9672C15.1789 14.0258 15.1977 14.143 15.1367 14.2273Z" fill="#FF0B80"/>
        </svg>



    </defs>
</svg>
